<?xml version="1.0" encoding="utf-8"?>
<!-- Generator: Adobe Illustrator 24.1.2, SVG Export Plug-In . SVG Version: 6.00 Build 0)  -->
<svg version="1.1" id="Layer_1" xmlns="http://www.w3.org/2000/svg" xmlns:xlink="http://www.w3.org/1999/xlink" x="0px" y="0px"
	 viewBox="0 0 1504.2 944" style="enable-background:new 0 0 1504.2 944;" xml:space="preserve">
<style type="text/css">
	.st0{opacity:0.2;fill:#C0C0C0;enable-background:new    ;}
	.st1{fill:#F6EE8C;}
	.st2{fill:none;stroke:#000000;stroke-miterlimit:10;}
	.st3{font-family:'Arial-BoldMT';}
	.st4{font-size:13px;}
	.st5{font-family:'ArialMT';}
	.st6{fill:none;stroke:#FFFFFF;stroke-miterlimit:10;}
	.st7{fill:#FFFFFF;}
	.st8{fill:#03DAC5;}
	.st9{fill:#BB8CF6;}
	.st10{fill:none;stroke:#FFFFFF;stroke-miterlimit:10;stroke-dasharray:3;}
</style>
<g>
	<g transform="translate(-29,-113) scale(1,1)">
		<rect x="1287" y="367" class="st0" width="93.2" height="87"/>
	</g>
	<g transform="translate(-29,-113) scale(1,1)">
		<rect x="1280" y="360" class="st1" width="93.2" height="87"/>
	</g>
	<g transform="translate(-29,-113) scale(1,1)">
		<path class="st2" d="M1280,360h93.2v87H1280V360z"/>
	</g>
	<g transform="translate(-29,-113) scale(1,1)">
		<path class="st2" d="M1280,385h93.2"/>
	</g>
	<g transform="translate(-29,-113) scale(1,1)">
		<path class="st2" d="M1280,438h93.2"/>
	</g>
	<g transform="translate(-29,-113) scale(1,1)">
		<g>
			<path class="st2" d="M0,0"/>
			<text transform="matrix(1 0 0 1 1298.4141 379.5)" class="st3 st4">MetaData</text>
		</g>
	</g>
	<g transform="translate(-29,-113) scale(1,1)">
		<g>
			<path d="M0,0"/>
			<text transform="matrix(1 0 0 1 1285 402.5)" class="st5 st4">+time</text>
		</g>
	</g>
	<g transform="translate(-29,-113) scale(1,1)">
		<g>
			<path d="M0,0"/>
			<text transform="matrix(1 0 0 1 1285 417.5)" class="st5 st4">+lastUpdate</text>
		</g>
	</g>
	<g transform="translate(-29,-113) scale(1,1)">
		<g>
			<path d="M0,0"/>
			<text transform="matrix(1 0 0 1 1285 432.5)" class="st5 st4">+batteryStatus</text>
		</g>
	</g>
	<g transform="translate(-29,-113) scale(1,1)">
		<path class="st6" d="M1281,360v-81"/>
	</g>
	<g transform="translate(-29,-113) scale(1,1)">
		<path class="st7" d="M1285.2,289.2L1281,279l-4.2,10.2l4.2,11.8"/>
	</g>
	<g transform="translate(-29,-113) scale(1,1)">
		<path class="st6" d="M1285.2,289.2L1281,279l-4.2,10.2l4.2,11.8L1285.2,289.2"/>
	</g>
	<g transform="translate(-29,-113) scale(1,1)">
		<g>
			<path class="st6" d="M0,0"/>
			<text transform="matrix(1 0 0 1 1283.5 344.5)" class="st7 st5 st4">0..*</text>
		</g>
	</g>
	<g transform="translate(-29,-113) scale(1,1)">
		<path class="st6" d="M1312,360v-16h78v59h-17"/>
	</g>
	<g transform="translate(-29,-113) scale(1,1)">
		<path class="st7" d="M1383.2,398.8L1373,403l10.2,4.2l11.8-4.2"/>
	</g>
	<g transform="translate(-29,-113) scale(1,1)">
		<path class="st6" d="M1383.2,398.8L1373,403l10.2,4.2l11.8-4.2L1383.2,398.8"/>
	</g>
	<g transform="translate(-29,-113) scale(1,1)">
		<g>
			<path class="st6" d="M0,0"/>
			<text transform="matrix(1 0 0 1 1389.5 372.5)" class="st7 st5 st4">+metadataMetaData</text>
		</g>
	</g>
	<g transform="translate(-29,-113) scale(1,1)">
		<g>
			<path class="st7" d="M0,0"/>
			<text transform="matrix(1 0 0 1 1384.5 419.5)" class="st7 st5 st4">0..*</text>
		</g>
	</g>
	<g transform="translate(-29,-113) scale(1,1)">
		<rect x="919" y="759" class="st0" width="55.3" height="37"/>
	</g>
	<g transform="translate(-29,-113) scale(1,1)">
		<rect x="912" y="752" class="st8" width="55.3" height="37"/>
	</g>
	<g transform="translate(-29,-113) scale(1,1)">
		<path class="st2" d="M912,752h55.3v37H912V752z"/>
	</g>
	<g transform="translate(-29,-113) scale(1,1)">
		<rect x="912" y="752" class="st8" width="55.3" height="37"/>
	</g>
	<g transform="translate(-29,-113) scale(1,1)">
		<path class="st2" d="M912,752h55.3v37H912V752z"/>
	</g>
	<g transform="translate(-29,-113) scale(1,1)">
		<g>
			<path class="st2" d="M0,0"/>
			<text transform="matrix(1 0 0 1 922.2922 771.5)" class="st3 st4">Room</text>
			<path class="st2" d="M958,771.5h-36.8"/>
			<text transform="matrix(1 0 0 1 917.9568 784.5)" class="st3 st4">Service</text>
			<path class="st2" d="M962.8,784.5h-46.3"/>
		</g>
	</g>
	<g transform="translate(-29,-113) scale(1,1)">
		<rect x="967" y="823" class="st0" width="87" height="24"/>
	</g>
	<g transform="translate(-29,-113) scale(1,1)">
		<rect x="960" y="816" class="st9" width="87" height="24"/>
	</g>
	<g transform="translate(-29,-113) scale(1,1)">
		<path class="st2" d="M960,816h87v24h-87V816z"/>
	</g>
	<g transform="translate(-29,-113) scale(1,1)">
		<rect x="960" y="816" class="st9" width="87" height="24"/>
	</g>
	<g transform="translate(-29,-113) scale(1,1)">
		<path class="st2" d="M960,816h87v24h-87V816z"/>
	</g>
	<g transform="translate(-29,-113) scale(1,1)">
		<g>
			<path class="st2" d="M0,0"/>
			<text transform="matrix(1 0 0 1 967.7437 835.5)" class="st3 st4">hasHumidity</text>
			<path class="st2" d="M1042.5,835.5h-78"/>
		</g>
	</g>
	<g transform="translate(-29,-113) scale(1,1)">
		<rect x="983" y="783" class="st0" width="93.5" height="24"/>
	</g>
	<g transform="translate(-29,-113) scale(1,1)">
		<rect x="976" y="776" class="st9" width="93.5" height="24"/>
	</g>
	<g transform="translate(-29,-113) scale(1,1)">
		<path class="st2" d="M976,776h93.5v24H976V776z"/>
	</g>
	<g transform="translate(-29,-113) scale(1,1)">
		<rect x="976" y="776" class="st9" width="93.5" height="24"/>
	</g>
	<g transform="translate(-29,-113) scale(1,1)">
		<path class="st2" d="M976,776h93.5v24H976V776z"/>
	</g>
	<g transform="translate(-29,-113) scale(1,1)">
		<g>
			<path class="st2" d="M0,0"/>
			<text transform="matrix(1 0 0 1 984.1086 795.5)" class="st3 st4">hasAirQuality</text>
			<path class="st2" d="M1065,795.5h-84.5"/>
		</g>
	</g>
	<g transform="translate(-29,-113) scale(1,1)">
		<path class="st6" d="M936,789v27h24"/>
	</g>
	<g transform="translate(-29,-113) scale(1,1)">
		<path class="st6" d="M967,770h53v6"/>
	</g>
	<g transform="translate(-29,-113) scale(1,1)">
		<rect x="815" y="759" class="st0" width="92" height="24"/>
	</g>
	<g transform="translate(-29,-113) scale(1,1)">
		<rect x="808" y="752" class="st9" width="92" height="24"/>
	</g>
	<g transform="translate(-29,-113) scale(1,1)">
		<path class="st2" d="M808,752h92v24h-92V752z"/>
	</g>
	<g transform="translate(-29,-113) scale(1,1)">
		<rect x="808" y="752" class="st9" width="92" height="24"/>
	</g>
	<g transform="translate(-29,-113) scale(1,1)">
		<path class="st2" d="M808,752h92v24h-92V752z"/>
	</g>
	<g transform="translate(-29,-113) scale(1,1)">
		<g>
			<path class="st2" d="M0,0"/>
			<text transform="matrix(1 0 0 1 816.4514 771.5)" class="st3 st4">airMonitoring</text>
			<path class="st2" d="M895.5,771.5h-83"/>
		</g>
	</g>
	<g transform="translate(-29,-113) scale(1,1)">
		<path class="st6" d="M912,764h-12"/>
	</g>
	<g transform="translate(-29,-113) scale(1,1)">
		<path class="st10" d="M1047,828h57v100h40"/>
	</g>
	<g transform="translate(-29,-113) scale(1,1)">
		<path class="st7" d="M1123.7,936.4l20.3-8.4l-20.3-8.4"/>
	</g>
	<g transform="translate(-29,-113) scale(1,1)">
		<path class="st6" d="M1123.7,936.4l20.3-8.4l-20.3-8.4V936.4"/>
	</g>
	<g transform="translate(-29,-113) scale(1,1)">
		<path class="st10" d="M1070,788h74"/>
	</g>
	<g transform="translate(-29,-113) scale(1,1)">
		<path class="st7" d="M1123.7,796.4l20.3-8.4l-20.3-8.4"/>
	</g>
	<g transform="translate(-29,-113) scale(1,1)">
		<path class="st6" d="M1123.7,796.4l20.3-8.4l-20.3-8.4V796.4"/>
	</g>
	<g transform="translate(-29,-113) scale(1,1)">
		<rect x="423" y="463" class="st0" width="55.3" height="37"/>
	</g>
	<g transform="translate(-29,-113) scale(1,1)">
		<rect x="416" y="456" class="st8" width="55.3" height="37"/>
	</g>
	<g transform="translate(-29,-113) scale(1,1)">
		<path class="st2" d="M416,456h55.3v37H416V456z"/>
	</g>
	<g transform="translate(-29,-113) scale(1,1)">
		<rect x="416" y="456" class="st8" width="55.3" height="37"/>
	</g>
	<g transform="translate(-29,-113) scale(1,1)">
		<path class="st2" d="M416,456h55.3v37H416V456z"/>
	</g>
	<g transform="translate(-29,-113) scale(1,1)">
		<g>
			<path class="st2" d="M0,0"/>
			<text transform="matrix(1 0 0 1 424.4863 475.5)" class="st3 st4">Switch</text>
			<path class="st2" d="M464.6,475.5h-41.9"/>
			<text transform="matrix(1 0 0 1 421.9568 488.5)" class="st3 st4">Service</text>
			<path class="st2" d="M466.8,488.5h-46.3"/>
		</g>
	</g>
	<g transform="translate(-29,-113) scale(1,1)">
		<rect x="343" y="495" class="st0" width="56.7" height="24"/>
	</g>
	<g transform="translate(-29,-113) scale(1,1)">
		<rect x="336" y="488" class="st9" width="56.7" height="24"/>
	</g>
	<g transform="translate(-29,-113) scale(1,1)">
		<path class="st2" d="M336,488h56.7v24H336V488z"/>
	</g>
	<g transform="translate(-29,-113) scale(1,1)">
		<rect x="336" y="488" class="st9" width="56.7" height="24"/>
	</g>
	<g transform="translate(-29,-113) scale(1,1)">
		<path class="st2" d="M336,488h56.7v24H336V488z"/>
	</g>
	<g transform="translate(-29,-113) scale(1,1)">
		<g>
			<path class="st2" d="M0,0"/>
			<text transform="matrix(1 0 0 1 345.9146 507.5)" class="st3 st4">Status</text>
			<path class="st2" d="M384.2,507.5h-39.7"/>
		</g>
	</g>
	<g transform="translate(-29,-113) scale(1,1)">
		<rect x="967" y="855" class="st0" width="86.8" height="24"/>
	</g>
	<g transform="translate(-29,-113) scale(1,1)">
		<rect x="960" y="848" class="st9" width="86.8" height="24"/>
	</g>
	<g transform="translate(-29,-113) scale(1,1)">
		<path class="st2" d="M960,848h86.8v24H960V848z"/>
	</g>
	<g transform="translate(-29,-113) scale(1,1)">
		<rect x="960" y="848" class="st9" width="86.8" height="24"/>
	</g>
	<g transform="translate(-29,-113) scale(1,1)">
		<path class="st2" d="M960,848h86.8v24H960V848z"/>
	</g>
	<g transform="translate(-29,-113) scale(1,1)">
		<g>
			<path class="st2" d="M0,0"/>
			<text transform="matrix(1 0 0 1 966.9026 867.5)" class="st3 st4">Temperature</text>
			<path class="st2" d="M1042.3,867.5h-77.8"/>
		</g>
	</g>
	<g transform="translate(-29,-113) scale(1,1)">
		<path class="st6" d="M936,789v71h24"/>
	</g>
	<g transform="translate(-29,-113) scale(1,1)">
		<path class="st10" d="M971,872v112h212v-53"/>
	</g>
	<g transform="translate(-29,-113) scale(1,1)">
		<path class="st7" d="M1191.4,951.3L1183,931l-8.4,20.3"/>
	</g>
	<g transform="translate(-29,-113) scale(1,1)">
		<path class="st6" d="M1191.4,951.3L1183,931l-8.4,20.3H1191.4"/>
	</g>
	<g transform="translate(-29,-113) scale(1,1)">
		<rect x="503" y="527" class="st0" width="58.1" height="24"/>
	</g>
	<g transform="translate(-29,-113) scale(1,1)">
		<rect x="496" y="520" class="st9" width="58.1" height="24"/>
	</g>
	<g transform="translate(-29,-113) scale(1,1)">
		<path class="st2" d="M496,520h58.1v24H496V520z"/>
	</g>
	<g transform="translate(-29,-113) scale(1,1)">
		<rect x="496" y="520" class="st9" width="58.1" height="24"/>
	</g>
	<g transform="translate(-29,-113) scale(1,1)">
		<path class="st2" d="M496,520h58.1v24H496V520z"/>
	</g>
	<g transform="translate(-29,-113) scale(1,1)">
		<g>
			<path class="st2" d="M0,0"/>
			<text transform="matrix(1 0 0 1 509.8882 539.5)" class="st3 st4">State</text>
			<path class="st2" d="M541,539.5h-31.8"/>
		</g>
	</g>
	<g transform="translate(-29,-113) scale(1,1)">
		<path class="st6" d="M443,456v-16h-79v48"/>
	</g>
	<g transform="translate(-29,-113) scale(1,1)">
		<path class="st6" d="M471,474h54v46"/>
	</g>
	<g transform="translate(-29,-113) scale(1,1)">
		<rect x="335" y="567" class="st0" width="86.3" height="37"/>
	</g>
	<g transform="translate(-29,-113) scale(1,1)">
		<rect x="328" y="560" class="st9" width="86.3" height="37"/>
	</g>
	<g transform="translate(-29,-113) scale(1,1)">
		<path class="st2" d="M328,560h86.3v37H328V560z"/>
	</g>
	<g transform="translate(-29,-113) scale(1,1)">
		<rect x="328" y="560" class="st9" width="86.3" height="37"/>
	</g>
	<g transform="translate(-29,-113) scale(1,1)">
		<path class="st2" d="M328,560h86.3v37H328V560z"/>
	</g>
	<g transform="translate(-29,-113) scale(1,1)">
		<g>
			<path class="st2" d="M0,0"/>
			<text transform="matrix(1 0 0 1 335.7563 579.5)" class="st3 st4">smartSwitch</text>
			<path class="st2" d="M409.8,579.5h-77.3"/>
			<text transform="matrix(1 0 0 1 349.4768 592.5)" class="st3 st4">Service</text>
			<path class="st2" d="M394.3,592.5H348"/>
		</g>
	</g>
	<g transform="translate(-29,-113) scale(1,1)">
		<rect x="439" y="567" class="st0" width="62.5" height="37"/>
	</g>
	<g transform="translate(-29,-113) scale(1,1)">
		<rect x="432" y="560" class="st9" width="62.5" height="37"/>
	</g>
	<g transform="translate(-29,-113) scale(1,1)">
		<path class="st2" d="M432,560h62.5v37H432V560z"/>
	</g>
	<g transform="translate(-29,-113) scale(1,1)">
		<rect x="432" y="560" class="st9" width="62.5" height="37"/>
	</g>
	<g transform="translate(-29,-113) scale(1,1)">
		<path class="st2" d="M432,560h62.5v37H432V560z"/>
	</g>
	<g transform="translate(-29,-113) scale(1,1)">
		<g>
			<path class="st2" d="M0,0"/>
			<text transform="matrix(1 0 0 1 445.5264 579.5)" class="st3 st4">health</text>
			<path class="st2" d="M482.4,579.5h-38.3"/>
			<text transform="matrix(1 0 0 1 439.0327 592.5)" class="st3 st4">Analysis</text>
			<path class="st2" d="M490,592.5h-53.5"/>
		</g>
	</g>
	<g transform="translate(-29,-113) scale(1,1)">
		<path class="st10" d="M405,560v-28h91"/>
	</g>
	<g transform="translate(-29,-113) scale(1,1)">
		<path class="st6" d="M485.8,536.2L496,532l-10.2-4.2"/>
	</g>
	<g transform="translate(-29,-113) scale(1,1)">
		<path class="st10" d="M368,560v-48"/>
	</g>
	<g transform="translate(-29,-113) scale(1,1)">
		<path class="st6" d="M372.2,522.2L368,512l-4.2,10.2"/>
	</g>
	<g transform="translate(-29,-113) scale(1,1)">
		<path class="st10" d="M364,488V384h-88v208"/>
	</g>
	<g transform="translate(-29,-113) scale(1,1)">
		<path class="st7" d="M267.6,571.7L276,592l8.4-20.3"/>
	</g>
	<g transform="translate(-29,-113) scale(1,1)">
		<path class="st6" d="M267.6,571.7L276,592l8.4-20.3H267.6"/>
	</g>
	<g transform="translate(-29,-113) scale(1,1)">
		<path class="st10" d="M525,520V384H276v208"/>
	</g>
	<g transform="translate(-29,-113) scale(1,1)">
		<path class="st7" d="M267.6,571.7L276,592l8.4-20.3"/>
	</g>
	<g transform="translate(-29,-113) scale(1,1)">
		<path class="st6" d="M267.6,571.7L276,592l8.4-20.3H267.6"/>
	</g>
	<g transform="translate(-29,-113) scale(1,1)">
		<path class="st10" d="M472,560v-56h-79"/>
	</g>
	<g transform="translate(-29,-113) scale(1,1)">
		<path class="st6" d="M403.2,499.8L393,504l10.2,4.2"/>
	</g>
	<g transform="translate(-29,-113) scale(1,1)">
		<rect x="815" y="847" class="st0" width="97.8" height="24"/>
	</g>
	<g transform="translate(-29,-113) scale(1,1)">
		<rect x="808" y="840" class="st9" width="97.8" height="24"/>
	</g>
	<g transform="translate(-29,-113) scale(1,1)">
		<path class="st2" d="M808,840h97.8v24H808V840z"/>
	</g>
	<g transform="translate(-29,-113) scale(1,1)">
		<rect x="808" y="840" class="st9" width="97.8" height="24"/>
	</g>
	<g transform="translate(-29,-113) scale(1,1)">
		<path class="st2" d="M808,840h97.8v24H808V840z"/>
	</g>
	<g transform="translate(-29,-113) scale(1,1)">
		<g>
			<path class="st2" d="M0,0"/>
			<text transform="matrix(1 0 0 1 816.8069 859.5)" class="st3 st4">Light Intensity</text>
			<path class="st2" d="M901.3,859.5h-88.8"/>
		</g>
	</g>
	<g transform="translate(-29,-113) scale(1,1)">
		<rect x="815" y="807" class="st0" width="84.1" height="24"/>
	</g>
	<g transform="translate(-29,-113) scale(1,1)">
		<rect x="808" y="800" class="st9" width="84.1" height="24"/>
	</g>
	<g transform="translate(-29,-113) scale(1,1)">
		<path class="st2" d="M808,800h84.1v24H808V800z"/>
	</g>
	<g transform="translate(-29,-113) scale(1,1)">
		<rect x="808" y="800" class="st9" width="84.1" height="24"/>
	</g>
	<g transform="translate(-29,-113) scale(1,1)">
		<path class="st2" d="M808,800h84.1v24H808V800z"/>
	</g>
	<g transform="translate(-29,-113) scale(1,1)">
		<g>
			<path class="st2" d="M0,0"/>
			<text transform="matrix(1 0 0 1 815.02 819.5)" class="st3 st4">UV Intensity</text>
			<path class="st2" d="M887.6,819.5h-75.1"/>
		</g>
	</g>
	<g transform="translate(-29,-113) scale(1,1)">
		<path class="st6" d="M892,820h44v-31"/>
	</g>
	<g transform="translate(-29,-113) scale(1,1)">
		<path class="st6" d="M906,852h30v-63"/>
	</g>
	<g transform="translate(-29,-113) scale(1,1)">
		<path class="st10" d="M852,752v-40h331v72"/>
	</g>
	<g transform="translate(-29,-113) scale(1,1)">
		<path class="st7" d="M1174.6,763.7l8.4,20.3l8.4-20.3"/>
	</g>
	<g transform="translate(-29,-113) scale(1,1)">
		<path class="st6" d="M1174.6,763.7l8.4,20.3l8.4-20.3H1174.6"/>
	</g>
	<g transform="translate(-29,-113) scale(1,1)">
		<path class="st10" d="M808,820h-24V712h399v72"/>
	</g>
	<g transform="translate(-29,-113) scale(1,1)">
		<path class="st7" d="M1174.6,763.7l8.4,20.3l8.4-20.3"/>
	</g>
	<g transform="translate(-29,-113) scale(1,1)">
		<path class="st6" d="M1174.6,763.7l8.4,20.3l8.4-20.3H1174.6"/>
	</g>
	<g transform="translate(-29,-113) scale(1,1)">
		<path class="st10" d="M864,864v120h319v-53"/>
	</g>
	<g transform="translate(-29,-113) scale(1,1)">
		<path class="st7" d="M1191.4,951.3L1183,931l-8.4,20.3"/>
	</g>
	<g transform="translate(-29,-113) scale(1,1)">
		<path class="st6" d="M1191.4,951.3L1183,931l-8.4,20.3H1191.4"/>
	</g>
	<g transform="translate(-29,-113) scale(1,1)">
		<rect x="615" y="703" class="st0" width="55.3" height="37"/>
	</g>
	<g transform="translate(-29,-113) scale(1,1)">
		<rect x="608" y="696" class="st8" width="55.3" height="37"/>
	</g>
	<g transform="translate(-29,-113) scale(1,1)">
		<path class="st2" d="M608,696h55.3v37H608V696z"/>
	</g>
	<g transform="translate(-29,-113) scale(1,1)">
		<rect x="608" y="696" class="st8" width="55.3" height="37"/>
	</g>
	<g transform="translate(-29,-113) scale(1,1)">
		<path class="st2" d="M608,696h55.3v37H608V696z"/>
	</g>
	<g transform="translate(-29,-113) scale(1,1)">
		<g>
			<path class="st2" d="M0,0"/>
			<text transform="matrix(1 0 0 1 618.2859 715.5)" class="st3 st4">Lights</text>
			<path class="st2" d="M655.1,715.5h-39"/>
			<text transform="matrix(1 0 0 1 613.9568 728.5)" class="st3 st4">Service</text>
			<path class="st2" d="M658.8,728.5h-46.3"/>
		</g>
	</g>
	<g transform="translate(-29,-113) scale(1,1)">
		<rect x="591" y="751" class="st0" width="92.8" height="24"/>
	</g>
	<g transform="translate(-29,-113) scale(1,1)">
		<rect x="584" y="744" class="st9" width="92.8" height="24"/>
	</g>
	<g transform="translate(-29,-113) scale(1,1)">
		<path class="st2" d="M584,744h92.8v24H584V744z"/>
	</g>
	<g transform="translate(-29,-113) scale(1,1)">
		<rect x="584" y="744" class="st9" width="92.8" height="24"/>
	</g>
	<g transform="translate(-29,-113) scale(1,1)">
		<path class="st2" d="M584,744h92.8v24H584V744z"/>
	</g>
	<g transform="translate(-29,-113) scale(1,1)">
		<g>
			<path class="st2" d="M0,0"/>
			<text transform="matrix(1 0 0 1 590.2869 763.5)" class="st3 st4">RGB Channel</text>
			<path class="st2" d="M672.3,763.5h-83.8"/>
		</g>
	</g>
	<g transform="translate(-29,-113) scale(1,1)">
		<path class="st6" d="M636,744v-11"/>
	</g>
	<g transform="translate(-29,-113) scale(1,1)">
		<rect x="471" y="271" class="st0" width="64.6" height="50"/>
	</g>
	<g transform="translate(-29,-113) scale(1,1)">
		<rect x="464" y="264" class="st8" width="64.6" height="50"/>
	</g>
	<g transform="translate(-29,-113) scale(1,1)">
		<path class="st2" d="M464,264h64.6v50H464V264z"/>
	</g>
	<g transform="translate(-29,-113) scale(1,1)">
		<rect x="464" y="264" class="st8" width="64.6" height="50"/>
	</g>
	<g transform="translate(-29,-113) scale(1,1)">
		<path class="st2" d="M464,264h64.6v50H464V264z"/>
	</g>
	<g transform="translate(-29,-113) scale(1,1)">
		<g>
			<path class="st2" d="M0,0"/>
			<text transform="matrix(1 0 0 1 471.3723 283.5)" class="st3 st4">Intrusion</text>
			<path class="st2" d="M524.1,283.5h-55.6"/>
			<text transform="matrix(1 0 0 1 474.6318 296.5)" class="st3 st4">System</text>
			<path class="st2" d="M519.4,296.5h-46.2"/>
			<text transform="matrix(1 0 0 1 474.6287 309.5)" class="st3 st4">Service</text>
			<path class="st2" d="M519.4,309.5h-46.3"/>
		</g>
	</g>
	<g transform="translate(-29,-113) scale(1,1)">
		<rect x="879" y="263" class="st0" width="65.3" height="50"/>
	</g>
	<g transform="translate(-29,-113) scale(1,1)">
		<rect x="872" y="256" class="st8" width="65.3" height="50"/>
	</g>
	<g transform="translate(-29,-113) scale(1,1)">
		<path class="st2" d="M872,256h65.3v50H872V256z"/>
	</g>
	<g transform="translate(-29,-113) scale(1,1)">
		<rect x="872" y="256" class="st8" width="65.3" height="50"/>
	</g>
	<g transform="translate(-29,-113) scale(1,1)">
		<path class="st2" d="M872,256h65.3v50H872V256z"/>
	</g>
	<g transform="translate(-29,-113) scale(1,1)">
		<g>
			<path class="st2" d="M0,0"/>
			<text transform="matrix(1 0 0 1 879.3787 275.5)" class="st3 st4">Irrigation</text>
			<path class="st2" d="M932.8,275.5h-56.3"/>
			<text transform="matrix(1 0 0 1 882.9968 288.5)" class="st3 st4">System</text>
			<path class="st2" d="M927.8,288.5h-46.2"/>
			<text transform="matrix(1 0 0 1 882.9937 301.5)" class="st3 st4">Service</text>
			<path class="st2" d="M927.8,301.5h-46.3"/>
		</g>
	</g>
	<g transform="translate(-29,-113) scale(1,1)">
		<rect x="455" y="215" class="st0" width="94.2" height="24"/>
	</g>
	<g transform="translate(-29,-113) scale(1,1)">
		<rect x="448" y="208" class="st9" width="94.2" height="24"/>
	</g>
	<g transform="translate(-29,-113) scale(1,1)">
		<path class="st2" d="M448,208h94.2v24H448V208z"/>
	</g>
	<g transform="translate(-29,-113) scale(1,1)">
		<rect x="448" y="208" class="st9" width="94.2" height="24"/>
	</g>
	<g transform="translate(-29,-113) scale(1,1)">
		<path class="st2" d="M448,208h94.2v24H448V208z"/>
	</g>
	<g transform="translate(-29,-113) scale(1,1)">
		<g>
			<path class="st2" d="M0,0"/>
			<text transform="matrix(1 0 0 1 455.0073 227.5)" class="st3 st4">MagnetStatus</text>
			<path class="st2" d="M537.7,227.5h-85.2"/>
		</g>
	</g>
	<g transform="translate(-29,-113) scale(1,1)">
		<rect x="943" y="231" class="st0" width="90.6" height="24"/>
	</g>
	<g transform="translate(-29,-113) scale(1,1)">
		<rect x="936" y="224" class="st9" width="90.6" height="24"/>
	</g>
	<g transform="translate(-29,-113) scale(1,1)">
		<path class="st2" d="M936,224h90.6v24H936V224z"/>
	</g>
	<g transform="translate(-29,-113) scale(1,1)">
		<rect x="936" y="224" class="st9" width="90.6" height="24"/>
	</g>
	<g transform="translate(-29,-113) scale(1,1)">
		<path class="st2" d="M936,224h90.6v24H936V224z"/>
	</g>
	<g transform="translate(-29,-113) scale(1,1)">
		<g>
			<path class="st2" d="M0,0"/>
			<text transform="matrix(1 0 0 1 943.7405 243.5)" class="st3 st4">Soil Moisture</text>
			<path class="st2" d="M1022.1,243.5h-81.6"/>
		</g>
	</g>
	<g transform="translate(-29,-113) scale(1,1)">
		<rect x="959" y="167" class="st0" width="82" height="24"/>
	</g>
	<g transform="translate(-29,-113) scale(1,1)">
		<rect x="952" y="160" class="st9" width="82" height="24"/>
	</g>
	<g transform="translate(-29,-113) scale(1,1)">
		<path class="st2" d="M952,160h82v24h-82V160z"/>
	</g>
	<g transform="translate(-29,-113) scale(1,1)">
		<rect x="952" y="160" class="st9" width="82" height="24"/>
	</g>
	<g transform="translate(-29,-113) scale(1,1)">
		<path class="st2" d="M952,160h82v24h-82V160z"/>
	</g>
	<g transform="translate(-29,-113) scale(1,1)">
		<g>
			<path class="st2" d="M0,0"/>
			<text transform="matrix(1 0 0 1 958.7883 179.5)" class="st3 st4">ValveStatus</text>
			<path class="st2" d="M1029.5,179.5h-73"/>
		</g>
	</g>
	<g transform="translate(-29,-113) scale(1,1)">
		<path class="st10" d="M496,208v-40h-88"/>
	</g>
	<g transform="translate(-29,-113) scale(1,1)">
		<path class="st7" d="M428.3,159.6L408,168l20.3,8.4"/>
	</g>
	<g transform="translate(-29,-113) scale(1,1)">
		<path class="st6" d="M428.3,159.6L408,168l20.3,8.4V159.6"/>
	</g>
	<g transform="translate(-29,-113) scale(1,1)">
		<path class="st10" d="M976,184v24h120"/>
	</g>
	<g transform="translate(-29,-113) scale(1,1)">
		<path class="st7" d="M1075.7,216.4l20.3-8.4l-20.3-8.4"/>
	</g>
	<g transform="translate(-29,-113) scale(1,1)">
		<path class="st6" d="M1075.7,216.4l20.3-8.4l-20.3-8.4V216.4"/>
	</g>
	<g transform="translate(-29,-113) scale(1,1)">
		<path class="st10" d="M981,224v-16h115"/>
	</g>
	<g transform="translate(-29,-113) scale(1,1)">
		<path class="st7" d="M1075.7,216.4l20.3-8.4l-20.3-8.4"/>
	</g>
	<g transform="translate(-29,-113) scale(1,1)">
		<path class="st6" d="M1075.7,216.4l20.3-8.4l-20.3-8.4V216.4"/>
	</g>
	<g transform="translate(-29,-113) scale(1,1)">
		<path class="st6" d="M497,232v32"/>
	</g>
	<g transform="translate(-29,-113) scale(1,1)">
		<path class="st6" d="M952,172h-48v84"/>
	</g>
	<g transform="translate(-29,-113) scale(1,1)">
		<path class="st6" d="M983,248v26h-46"/>
	</g>
	<g transform="translate(-29,-113) scale(1,1)">
		<rect x="1103" y="167" class="st0" width="81.9" height="87"/>
	</g>
	<g transform="translate(-29,-113) scale(1,1)">
		<rect x="1096" y="160" class="st7" width="81.9" height="87"/>
	</g>
	<g transform="translate(-29,-113) scale(1,1)">
		<path class="st2" d="M1096,160h81.9v87H1096V160z"/>
	</g>
	<g transform="translate(-29,-113) scale(1,1)">
		<path class="st2" d="M1096,185h81.9"/>
	</g>
	<g transform="translate(-29,-113) scale(1,1)">
		<path class="st2" d="M1096,238h81.9"/>
	</g>
	<g transform="translate(-29,-113) scale(1,1)">
		<g>
			<path class="st2" d="M0,0"/>
			<text transform="matrix(1 0 0 1 1109.4724 179.5)" class="st3 st4">Attributes</text>
		</g>
	</g>
	<g transform="translate(-29,-113) scale(1,1)">
		<g>
			<path d="M0,0"/>
			<text transform="matrix(1 0 0 1 1101 202.5)" class="st5 st4">+WaterLevel</text>
		</g>
	</g>
	<g transform="translate(-29,-113) scale(1,1)">
		<g>
			<path d="M0,0"/>
			<text transform="matrix(1 0 0 1 1101 217.5)" class="st5 st4">+irrStatus</text>
		</g>
	</g>
	<g transform="translate(-29,-113) scale(1,1)">
		<g>
			<path d="M0,0"/>
			<text transform="matrix(1 0 0 1 1101 232.5)" class="st5 st4">+irrID</text>
		</g>
	</g>
	<g transform="translate(-29,-113) scale(1,1)">
		<rect x="343" y="151" class="st0" width="72.2" height="87"/>
	</g>
	<g transform="translate(-29,-113) scale(1,1)">
		<rect x="336" y="144" class="st7" width="72.2" height="87"/>
	</g>
	<g transform="translate(-29,-113) scale(1,1)">
		<path class="st2" d="M336,144h72.2v87H336V144z"/>
	</g>
	<g transform="translate(-29,-113) scale(1,1)">
		<path class="st2" d="M336,169h72.2"/>
	</g>
	<g transform="translate(-29,-113) scale(1,1)">
		<path class="st2" d="M336,222h72.2"/>
	</g>
	<g transform="translate(-29,-113) scale(1,1)">
		<g>
			<path class="st2" d="M0,0"/>
			<text transform="matrix(1 0 0 1 344.6609 163.5)" class="st3 st4">Attributes</text>
		</g>
	</g>
	<g transform="translate(-29,-113) scale(1,1)">
		<g>
			<path d="M0,0"/>
			<text transform="matrix(1 0 0 1 341 186.5)" class="st5 st4">+isStatus</text>
		</g>
	</g>
	<g transform="translate(-29,-113) scale(1,1)">
		<g>
			<path d="M0,0"/>
			<text transform="matrix(1 0 0 1 341 201.5)" class="st5 st4">+isID</text>
		</g>
	</g>
	<g transform="translate(-29,-113) scale(1,1)">
		<g>
			<path d="M0,0"/>
			<text transform="matrix(1 0 0 1 341 216.5)" class="st5 st4">+isState</text>
		</g>
	</g>
	<g transform="translate(-29,-113) scale(1,1)">
		<rect x="239" y="599" class="st0" width="89.6" height="87"/>
	</g>
	<g transform="translate(-29,-113) scale(1,1)">
		<rect x="232" y="592" class="st7" width="89.6" height="87"/>
	</g>
	<g transform="translate(-29,-113) scale(1,1)">
		<path class="st2" d="M232,592h89.6v87H232V592z"/>
	</g>
	<g transform="translate(-29,-113) scale(1,1)">
		<path class="st2" d="M232,617h89.6"/>
	</g>
	<g transform="translate(-29,-113) scale(1,1)">
		<path class="st2" d="M232,670h89.6"/>
	</g>
	<g transform="translate(-29,-113) scale(1,1)">
		<g>
			<path class="st2" d="M0,0"/>
			<text transform="matrix(1 0 0 1 249.3254 611.5)" class="st3 st4">Attributes</text>
		</g>
	</g>
	<g transform="translate(-29,-113) scale(1,1)">
		<g>
			<path d="M0,0"/>
			<text transform="matrix(1 0 0 1 237 634.5)" class="st5 st4">+switchID</text>
		</g>
	</g>
	<g transform="translate(-29,-113) scale(1,1)">
		<g>
			<path d="M0,0"/>
			<text transform="matrix(1 0 0 1 237 649.5)" class="st5 st4">+switchStatus</text>
		</g>
	</g>
	<g transform="translate(-29,-113) scale(1,1)">
		<g>
			<path d="M0,0"/>
			<text transform="matrix(1 0 0 1 237 664.5)" class="st5 st4">+switchState</text>
		</g>
	</g>
	<g transform="translate(-29,-113) scale(1,1)">
		<rect x="591" y="815" class="st0" width="77.3" height="117"/>
	</g>
	<g transform="translate(-29,-113) scale(1,1)">
		<rect x="584" y="808" class="st7" width="77.3" height="117"/>
	</g>
	<g transform="translate(-29,-113) scale(1,1)">
		<path class="st2" d="M584,808h77.3v117H584V808z"/>
	</g>
	<g transform="translate(-29,-113) scale(1,1)">
		<path class="st2" d="M584,833h77.3"/>
	</g>
	<g transform="translate(-29,-113) scale(1,1)">
		<path class="st2" d="M584,916h77.3"/>
	</g>
	<g transform="translate(-29,-113) scale(1,1)">
		<g>
			<path class="st2" d="M0,0"/>
			<text transform="matrix(1 0 0 1 595.1904 827.5)" class="st3 st4">Attributes</text>
		</g>
	</g>
	<g transform="translate(-29,-113) scale(1,1)">
		<g>
			<path d="M0,0"/>
			<text transform="matrix(1 0 0 1 589 850.5)" class="st5 st4">+rValue</text>
		</g>
	</g>
	<g transform="translate(-29,-113) scale(1,1)">
		<g>
			<path d="M0,0"/>
			<text transform="matrix(1 0 0 1 589 865.5)" class="st5 st4">+gValue</text>
		</g>
	</g>
	<g transform="translate(-29,-113) scale(1,1)">
		<g>
			<path d="M0,0"/>
			<text transform="matrix(1 0 0 1 589 880.5)" class="st5 st4">+bValue</text>
		</g>
	</g>
	<g transform="translate(-29,-113) scale(1,1)">
		<g>
			<path d="M0,0"/>
			<text transform="matrix(1 0 0 1 589 895.5)" class="st5 st4">+lightStatus</text>
		</g>
	</g>
	<g transform="translate(-29,-113) scale(1,1)">
		<g>
			<path d="M0,0"/>
			<text transform="matrix(1 0 0 1 589 910.5)" class="st5 st4">+lightState</text>
		</g>
	</g>
	<g transform="translate(-29,-113) scale(1,1)">
		<rect x="1151" y="791" class="st0" width="79.5" height="147"/>
	</g>
	<g transform="translate(-29,-113) scale(1,1)">
		<rect x="1144" y="784" class="st7" width="79.5" height="147"/>
	</g>
	<g transform="translate(-29,-113) scale(1,1)">
		<path class="st2" d="M1144,784h79.5v147H1144V784z"/>
	</g>
	<g transform="translate(-29,-113) scale(1,1)">
		<path class="st2" d="M1144,809h79.5"/>
	</g>
	<g transform="translate(-29,-113) scale(1,1)">
		<path class="st2" d="M1144,922h79.5"/>
	</g>
	<g transform="translate(-29,-113) scale(1,1)">
		<g>
			<path class="st2" d="M0,0"/>
			<text transform="matrix(1 0 0 1 1156.2695 803.5)" class="st3 st4">Attributes</text>
		</g>
	</g>
	<g transform="translate(-29,-113) scale(1,1)">
		<g>
			<path d="M0,0"/>
			<text transform="matrix(1 0 0 1 1149 826.5)" class="st5 st4">+tempVal</text>
		</g>
	</g>
	<g transform="translate(-29,-113) scale(1,1)">
		<g>
			<path d="M0,0"/>
			<text transform="matrix(1 0 0 1 1149 841.5)" class="st5 st4">+humVal</text>
		</g>
	</g>
	<g transform="translate(-29,-113) scale(1,1)">
		<g>
			<path d="M0,0"/>
			<text transform="matrix(1 0 0 1 1149 856.5)" class="st5 st4">+uvVal</text>
		</g>
	</g>
	<g transform="translate(-29,-113) scale(1,1)">
		<g>
			<path d="M0,0"/>
			<text transform="matrix(1 0 0 1 1149 871.5)" class="st5 st4">+luxVal</text>
		</g>
	</g>
	<g transform="translate(-29,-113) scale(1,1)">
		<g>
			<path d="M0,0"/>
			<text transform="matrix(1 0 0 1 1149 886.5)" class="st5 st4">+airQVal</text>
		</g>
	</g>
	<g transform="translate(-29,-113) scale(1,1)">
		<g>
			<path d="M0,0"/>
			<text transform="matrix(1 0 0 1 1149 901.5)" class="st5 st4">+roomState</text>
		</g>
	</g>
	<g transform="translate(-29,-113) scale(1,1)">
		<g>
			<path d="M0,0"/>
			<text transform="matrix(1 0 0 1 1149 916.5)" class="st5 st4">+roomSatus</text>
		</g>
	</g>
	<g transform="translate(-29,-113) scale(1,1)">
		<rect x="895" y="439" class="st0" width="65.3" height="57"/>
	</g>
	<g transform="translate(-29,-113) scale(1,1)">
		<rect x="888" y="432" class="st7" width="65.3" height="57"/>
	</g>
	<g transform="translate(-29,-113) scale(1,1)">
		<path class="st2" d="M888,432h65.3v57H888V432z"/>
	</g>
	<g transform="translate(-29,-113) scale(1,1)">
		<path class="st2" d="M888,470h65.3"/>
	</g>
	<g transform="translate(-29,-113) scale(1,1)">
		<path class="st2" d="M888,480h65.3"/>
	</g>
	<g transform="translate(-29,-113) scale(1,1)">
		<g>
			<path class="st2" d="M0,0"/>
			<text transform="matrix(1 0 0 1 895.3787 451.5)" class="st3 st4">Irrigation</text>
			<text transform="matrix(1 0 0 1 898.9968 464.5)" class="st3 st4">System</text>
		</g>
	</g>
	<g transform="translate(-29,-113) scale(1,1)">
		<path class="st10" d="M928,306v126"/>
	</g>
	<g transform="translate(-29,-113) scale(1,1)">
		<path class="st7" d="M919.6,411.7L928,432l8.4-20.3"/>
	</g>
	<g transform="translate(-29,-113) scale(1,1)">
		<path class="st6" d="M919.6,411.7L928,432l8.4-20.3H919.6"/>
	</g>
	<g transform="translate(-29,-113) scale(1,1)">
		<rect x="1271" y="154" class="st0" width="43" height="44"/>
	</g>
	<g transform="translate(-29,-113) scale(1,1)">
		<rect x="1264" y="147" class="st1" width="43" height="44"/>
	</g>
	<g transform="translate(-29,-113) scale(1,1)">
		<path class="st2" d="M1264,147h43v44h-43V147z"/>
	</g>
	<g transform="translate(-29,-113) scale(1,1)">
		<path class="st2" d="M1264,172h43"/>
	</g>
	<g transform="translate(-29,-113) scale(1,1)">
		<path class="st2" d="M1264,182h43"/>
	</g>
	<g transform="translate(-29,-113) scale(1,1)">
		<g>
			<path class="st2" d="M0,0"/>
			<text transform="matrix(1 0 0 1 1269.3411 166.5)" class="st3 st4">Value</text>
		</g>
	</g>
	<g transform="translate(-29,-113) scale(1,1)">
		<rect x="1239" y="242" class="st0" width="107.2" height="44"/>
	</g>
	<g transform="translate(-29,-113) scale(1,1)">
		<rect x="1232" y="235" class="st1" width="107.2" height="44"/>
	</g>
	<g transform="translate(-29,-113) scale(1,1)">
		<path class="st2" d="M1232,235h107.2v44H1232V235z"/>
	</g>
	<g transform="translate(-29,-113) scale(1,1)">
		<path class="st2" d="M1232,260h107.2"/>
	</g>
	<g transform="translate(-29,-113) scale(1,1)">
		<path class="st2" d="M1232,270h107.2"/>
	</g>
	<g transform="translate(-29,-113) scale(1,1)">
		<g>
			<path class="st2" d="M0,0"/>
			<text transform="matrix(1 0 0 1 1239.4929 254.5)" class="st3 st4">Value Container</text>
		</g>
	</g>
	<g transform="translate(-29,-113) scale(1,1)">
		<rect x="231" y="130" class="st0" width="43" height="44"/>
	</g>
	<g transform="translate(-29,-113) scale(1,1)">
		<rect x="224" y="123" class="st1" width="43" height="44"/>
	</g>
	<g transform="translate(-29,-113) scale(1,1)">
		<path class="st2" d="M224,123h43v44h-43V123z"/>
	</g>
	<g transform="translate(-29,-113) scale(1,1)">
		<path class="st2" d="M224,148h43"/>
	</g>
	<g transform="translate(-29,-113) scale(1,1)">
		<path class="st2" d="M224,158h43"/>
	</g>
	<g transform="translate(-29,-113) scale(1,1)">
		<g>
			<path class="st2" d="M0,0"/>
			<text transform="matrix(1 0 0 1 229.3411 142.5)" class="st3 st4">Value</text>
		</g>
	</g>
	<g transform="translate(-29,-113) scale(1,1)">
		<rect x="199" y="234" class="st0" width="107.2" height="44"/>
	</g>
	<g transform="translate(-29,-113) scale(1,1)">
		<rect x="192" y="227" class="st1" width="107.2" height="44"/>
	</g>
	<g transform="translate(-29,-113) scale(1,1)">
		<path class="st2" d="M192,227h107.2v44H192V227z"/>
	</g>
	<g transform="translate(-29,-113) scale(1,1)">
		<path class="st2" d="M192,252h107.2"/>
	</g>
	<g transform="translate(-29,-113) scale(1,1)">
		<path class="st2" d="M192,262h107.2"/>
	</g>
	<g transform="translate(-29,-113) scale(1,1)">
		<g>
			<path class="st2" d="M0,0"/>
			<text transform="matrix(1 0 0 1 199.4929 246.5)" class="st3 st4">Value Container</text>
		</g>
	</g>
	<g transform="translate(-29,-113) scale(1,1)">
		<rect x="263" y="722" class="st0" width="43" height="44"/>
	</g>
	<g transform="translate(-29,-113) scale(1,1)">
		<rect x="256" y="715" class="st1" width="43" height="44"/>
	</g>
	<g transform="translate(-29,-113) scale(1,1)">
		<path class="st2" d="M256,715h43v44h-43V715z"/>
	</g>
	<g transform="translate(-29,-113) scale(1,1)">
		<path class="st2" d="M256,740h43"/>
	</g>
	<g transform="translate(-29,-113) scale(1,1)">
		<path class="st2" d="M256,750h43"/>
	</g>
	<g transform="translate(-29,-113) scale(1,1)">
		<g>
			<path class="st2" d="M0,0"/>
			<text transform="matrix(1 0 0 1 261.3411 734.5)" class="st3 st4">Value</text>
		</g>
	</g>
	<g transform="translate(-29,-113) scale(1,1)">
		<rect x="231" y="810" class="st0" width="107.2" height="44"/>
	</g>
	<g transform="translate(-29,-113) scale(1,1)">
		<rect x="224" y="803" class="st1" width="107.2" height="44"/>
	</g>
	<g transform="translate(-29,-113) scale(1,1)">
		<path class="st2" d="M224,803h107.2v44H224V803z"/>
	</g>
	<g transform="translate(-29,-113) scale(1,1)">
		<path class="st2" d="M224,828h107.2"/>
	</g>
	<g transform="translate(-29,-113) scale(1,1)">
		<path class="st2" d="M224,838h107.2"/>
	</g>
	<g transform="translate(-29,-113) scale(1,1)">
		<g>
			<path class="st2" d="M0,0"/>
			<text transform="matrix(1 0 0 1 231.4929 822.5)" class="st3 st4">Value Container</text>
		</g>
	</g>
	<g transform="translate(-29,-113) scale(1,1)">
		<rect x="495" y="882" class="st0" width="43" height="44"/>
	</g>
	<g transform="translate(-29,-113) scale(1,1)">
		<rect x="488" y="875" class="st1" width="43" height="44"/>
	</g>
	<g transform="translate(-29,-113) scale(1,1)">
		<path class="st2" d="M488,875h43v44h-43V875z"/>
	</g>
	<g transform="translate(-29,-113) scale(1,1)">
		<path class="st2" d="M488,900h43"/>
	</g>
	<g transform="translate(-29,-113) scale(1,1)">
		<path class="st2" d="M488,910h43"/>
	</g>
	<g transform="translate(-29,-113) scale(1,1)">
		<g>
			<path class="st2" d="M0,0"/>
			<text transform="matrix(1 0 0 1 493.3411 894.5)" class="st3 st4">Value</text>
		</g>
	</g>
	<g transform="translate(-29,-113) scale(1,1)">
		<rect x="463" y="970" class="st0" width="107.2" height="44"/>
	</g>
	<g transform="translate(-29,-113) scale(1,1)">
		<rect x="456" y="963" class="st1" width="107.2" height="44"/>
	</g>
	<g transform="translate(-29,-113) scale(1,1)">
		<path class="st2" d="M456,963h107.2v44H456V963z"/>
	</g>
	<g transform="translate(-29,-113) scale(1,1)">
		<path class="st2" d="M456,988h107.2"/>
	</g>
	<g transform="translate(-29,-113) scale(1,1)">
		<path class="st2" d="M456,998h107.2"/>
	</g>
	<g transform="translate(-29,-113) scale(1,1)">
		<g>
			<path class="st2" d="M0,0"/>
			<text transform="matrix(1 0 0 1 463.4929 982.5)" class="st3 st4">Value Container</text>
		</g>
	</g>
	<g transform="translate(-29,-113) scale(1,1)">
		<rect x="1319" y="762" class="st0" width="43" height="44"/>
	</g>
	<g transform="translate(-29,-113) scale(1,1)">
		<rect x="1312" y="755" class="st1" width="43" height="44"/>
	</g>
	<g transform="translate(-29,-113) scale(1,1)">
		<path class="st2" d="M1312,755h43v44h-43V755z"/>
	</g>
	<g transform="translate(-29,-113) scale(1,1)">
		<path class="st2" d="M1312,780h43"/>
	</g>
	<g transform="translate(-29,-113) scale(1,1)">
		<path class="st2" d="M1312,790h43"/>
	</g>
	<g transform="translate(-29,-113) scale(1,1)">
		<g>
			<path class="st2" d="M0,0"/>
			<text transform="matrix(1 0 0 1 1317.3411 774.5)" class="st3 st4">Value</text>
		</g>
	</g>
	<g transform="translate(-29,-113) scale(1,1)">
		<rect x="1287" y="850" class="st0" width="107.2" height="44"/>
	</g>
	<g transform="translate(-29,-113) scale(1,1)">
		<rect x="1280" y="843" class="st1" width="107.2" height="44"/>
	</g>
	<g transform="translate(-29,-113) scale(1,1)">
		<path class="st2" d="M1280,843h107.2v44H1280V843z"/>
	</g>
	<g transform="translate(-29,-113) scale(1,1)">
		<path class="st2" d="M1280,868h107.2"/>
	</g>
	<g transform="translate(-29,-113) scale(1,1)">
		<path class="st2" d="M1280,878h107.2"/>
	</g>
	<g transform="translate(-29,-113) scale(1,1)">
		<g>
			<path class="st2" d="M0,0"/>
			<text transform="matrix(1 0 0 1 1287.4929 862.5)" class="st3 st4">Value Container</text>
		</g>
	</g>
	<g transform="translate(-29,-113) scale(1,1)">
		<path class="st6" d="M1285,191v44"/>
	</g>
	<g transform="translate(-29,-113) scale(1,1)">
		<path class="st7" d="M1280.8,224.8l4.2,10.2l4.2-10.2L1285,213"/>
	</g>
	<g transform="translate(-29,-113) scale(1,1)">
		<path class="st6" d="M1280.8,224.8l4.2,10.2l4.2-10.2L1285,213L1280.8,224.8"/>
	</g>
	<g transform="translate(-29,-113) scale(1,1)">
		<g>
			<path class="st6" d="M0,0"/>
			<text transform="matrix(1 0 0 1 1268.5 218.5)" class="st7 st5 st4">1</text>
		</g>
	</g>
	<g transform="translate(-29,-113) scale(1,1)">
		<path class="st6" d="M245,167v60"/>
	</g>
	<g transform="translate(-29,-113) scale(1,1)">
		<path class="st7" d="M240.8,216.8L245,227l4.2-10.2L245,205"/>
	</g>
	<g transform="translate(-29,-113) scale(1,1)">
		<path class="st6" d="M240.8,216.8L245,227l4.2-10.2L245,205L240.8,216.8"/>
	</g>
	<g transform="translate(-29,-113) scale(1,1)">
		<g>
			<path class="st6" d="M0,0"/>
			<text transform="matrix(1 0 0 1 228.5 188.5)" class="st7 st5 st4">1</text>
		</g>
	</g>
	<g transform="translate(-29,-113) scale(1,1)">
		<path class="st6" d="M277,759v44"/>
	</g>
	<g transform="translate(-29,-113) scale(1,1)">
		<path class="st7" d="M272.8,792.8L277,803l4.2-10.2L277,781"/>
	</g>
	<g transform="translate(-29,-113) scale(1,1)">
		<path class="st6" d="M272.8,792.8L277,803l4.2-10.2L277,781L272.8,792.8"/>
	</g>
	<g transform="translate(-29,-113) scale(1,1)">
		<g>
			<path class="st6" d="M0,0"/>
			<text transform="matrix(1 0 0 1 260.7268 786.5)" class="st7 st5 st4">1</text>
		</g>
	</g>
	<g transform="translate(-29,-113) scale(1,1)">
		<path class="st6" d="M509,919v44"/>
	</g>
	<g transform="translate(-29,-113) scale(1,1)">
		<path class="st7" d="M504.8,952.8L509,963l4.2-10.2L509,941"/>
	</g>
	<g transform="translate(-29,-113) scale(1,1)">
		<path class="st6" d="M504.8,952.8L509,963l4.2-10.2L509,941L504.8,952.8"/>
	</g>
	<g transform="translate(-29,-113) scale(1,1)">
		<g>
			<path class="st6" d="M0,0"/>
			<text transform="matrix(1 0 0 1 486.5 946.5)" class="st7 st5 st4">1..*</text>
		</g>
	</g>
	<g transform="translate(-29,-113) scale(1,1)">
		<path class="st6" d="M1333,799v44"/>
	</g>
	<g transform="translate(-29,-113) scale(1,1)">
		<path class="st7" d="M1328.8,832.8l4.2,10.2l4.2-10.2L1333,821"/>
	</g>
	<g transform="translate(-29,-113) scale(1,1)">
		<path class="st6" d="M1328.8,832.8l4.2,10.2l4.2-10.2L1333,821L1328.8,832.8"/>
	</g>
	<g transform="translate(-29,-113) scale(1,1)">
		<g>
			<path class="st6" d="M0,0"/>
			<text transform="matrix(1 0 0 1 1310.5 826.5)" class="st7 st5 st4">1..*</text>
		</g>
	</g>
	<g transform="translate(-29,-113) scale(1,1)">
		<path class="st6" d="M1240,235v-38h-62"/>
	</g>
	<g transform="translate(-29,-113) scale(1,1)">
		<path class="st7" d="M1188.2,192.8L1178,197l10.2,4.2l11.8-4.2"/>
	</g>
	<g transform="translate(-29,-113) scale(1,1)">
		<path class="st6" d="M1188.2,192.8L1178,197l10.2,4.2l11.8-4.2L1188.2,192.8"/>
	</g>
	<g transform="translate(-29,-113) scale(1,1)">
		<path class="st6" d="M299,264h77v-33"/>
	</g>
	<g transform="translate(-29,-113) scale(1,1)">
		<path class="st7" d="M380.2,241.2L376,231l-4.2,10.2L376,253"/>
	</g>
	<g transform="translate(-29,-113) scale(1,1)">
		<path class="st6" d="M380.2,241.2L376,231l-4.2,10.2L376,253L380.2,241.2"/>
	</g>
	<g transform="translate(-29,-113) scale(1,1)">
		<g>
			<path class="st6" d="M0,0"/>
			<text transform="matrix(1 0 0 1 303.5 283.5)" class="st7 st5 st4">1..*</text>
		</g>
	</g>
	<g transform="translate(-29,-113) scale(1,1)">
		<path class="st6" d="M331,825h61V639h-70"/>
	</g>
	<g transform="translate(-29,-113) scale(1,1)">
		<path class="st7" d="M332.2,634.8L322,639l10.2,4.2L344,639"/>
	</g>
	<g transform="translate(-29,-113) scale(1,1)">
		<path class="st6" d="M332.2,634.8L322,639l10.2,4.2L344,639L332.2,634.8"/>
	</g>
	<g transform="translate(-29,-113) scale(1,1)">
		<g>
			<path class="st6" d="M0,0"/>
			<text transform="matrix(1 0 0 1 342.5 843.5)" class="st7 st5 st4">1..*</text>
		</g>
	</g>
	<g transform="translate(-29,-113) scale(1,1)">
		<path class="st6" d="M563,985h59v-60"/>
	</g>
	<g transform="translate(-29,-113) scale(1,1)">
		<path class="st7" d="M626.2,935.2L622,925l-4.2,10.2L622,947"/>
	</g>
	<g transform="translate(-29,-113) scale(1,1)">
		<path class="st6" d="M626.2,935.2L622,925l-4.2,10.2L622,947L626.2,935.2"/>
	</g>
	<g transform="translate(-29,-113) scale(1,1)">
		<g>
			<path class="st6" d="M0,0"/>
			<text transform="matrix(1 0 0 1 631.5 971.5)" class="st7 st5 st4">1..*</text>
		</g>
	</g>
	<g transform="translate(-29,-113) scale(1,1)">
		<path class="st6" d="M1280,872h-57"/>
	</g>
	<g transform="translate(-29,-113) scale(1,1)">
		<path class="st7" d="M1233.2,867.8L1223,872l10.2,4.2l11.8-4.2"/>
	</g>
	<g transform="translate(-29,-113) scale(1,1)">
		<path class="st6" d="M1233.2,867.8L1223,872l10.2,4.2l11.8-4.2L1233.2,867.8"/>
	</g>
	<g transform="translate(-29,-113) scale(1,1)">
		<g>
			<path class="st6" d="M0,0"/>
			<text transform="matrix(1 0 0 1 1248.5 865.5)" class="st7 st5 st4">1..*</text>
		</g>
	</g>
	<g transform="translate(-29,-113) scale(1,1)">
		<rect x="151" y="294" class="st0" width="93.2" height="87"/>
	</g>
	<g transform="translate(-29,-113) scale(1,1)">
		<rect x="144" y="287" class="st1" width="93.2" height="87"/>
	</g>
	<g transform="translate(-29,-113) scale(1,1)">
		<path class="st2" d="M144,287h93.2v87H144V287z"/>
	</g>
	<g transform="translate(-29,-113) scale(1,1)">
		<path class="st2" d="M144,312h93.2"/>
	</g>
	<g transform="translate(-29,-113) scale(1,1)">
		<path class="st2" d="M144,365h93.2"/>
	</g>
	<g transform="translate(-29,-113) scale(1,1)">
		<g>
			<path class="st2" d="M0,0"/>
			<text transform="matrix(1 0 0 1 162.4141 306.5)" class="st3 st4">MetaData</text>
		</g>
	</g>
	<g transform="translate(-29,-113) scale(1,1)">
		<g>
			<path d="M0,0"/>
			<text transform="matrix(1 0 0 1 149 329.5)" class="st5 st4">+time</text>
		</g>
	</g>
	<g transform="translate(-29,-113) scale(1,1)">
		<g>
			<path d="M0,0"/>
			<text transform="matrix(1 0 0 1 149 344.5)" class="st5 st4">+lastUpdate</text>
		</g>
	</g>
	<g transform="translate(-29,-113) scale(1,1)">
		<g>
			<path d="M0,0"/>
			<text transform="matrix(1 0 0 1 149 359.5)" class="st5 st4">+batteryStatus</text>
		</g>
	</g>
	<g transform="translate(-29,-113) scale(1,1)">
		<path class="st6" d="M176,374v34H96v-78h48"/>
	</g>
	<g transform="translate(-29,-113) scale(1,1)">
		<path class="st7" d="M133.8,334.2L144,330l-10.2-4.2L122,330"/>
	</g>
	<g transform="translate(-29,-113) scale(1,1)">
		<path class="st6" d="M133.8,334.2L144,330l-10.2-4.2L122,330L133.8,334.2"/>
	</g>
	<g transform="translate(-29,-113) scale(1,1)">
		<g>
			<path class="st6" d="M0,0"/>
			<text transform="matrix(1 0 0 1 38.5 435.5)" class="st7 st5 st4">+metadataMetaData</text>
		</g>
	</g>
	<g transform="translate(-29,-113) scale(1,1)">
		<g>
			<path class="st7" d="M0,0"/>
			<text transform="matrix(1 0 0 1 112.5 325.5)" class="st7 st5 st4">0..*</text>
		</g>
	</g>
	<g transform="translate(-29,-113) scale(1,1)">
		<rect x="1303" y="943" class="st0" width="93.2" height="87"/>
	</g>
	<g transform="translate(-29,-113) scale(1,1)">
		<rect x="1296" y="936" class="st1" width="93.2" height="87"/>
	</g>
	<g transform="translate(-29,-113) scale(1,1)">
		<path class="st2" d="M1296,936h93.2v87H1296V936z"/>
	</g>
	<g transform="translate(-29,-113) scale(1,1)">
		<path class="st2" d="M1296,961h93.2"/>
	</g>
	<g transform="translate(-29,-113) scale(1,1)">
		<path class="st2" d="M1296,1014h93.2"/>
	</g>
	<g transform="translate(-29,-113) scale(1,1)">
		<g>
			<path class="st2" d="M0,0"/>
			<text transform="matrix(1 0 0 1 1314.4141 955.5)" class="st3 st4">MetaData</text>
		</g>
	</g>
	<g transform="translate(-29,-113) scale(1,1)">
		<g>
			<path d="M0,0"/>
			<text transform="matrix(1 0 0 1 1301 978.5)" class="st5 st4">+time</text>
		</g>
	</g>
	<g transform="translate(-29,-113) scale(1,1)">
		<g>
			<path d="M0,0"/>
			<text transform="matrix(1 0 0 1 1301 993.5)" class="st5 st4">+lastUpdate</text>
		</g>
	</g>
	<g transform="translate(-29,-113) scale(1,1)">
		<g>
			<path d="M0,0"/>
			<text transform="matrix(1 0 0 1 1301 1008.5)" class="st5 st4">+batteryStatus</text>
		</g>
	</g>
	<g transform="translate(-29,-113) scale(1,1)">
		<path class="st6" d="M1328,936v-16h78v59h-17"/>
	</g>
	<g transform="translate(-29,-113) scale(1,1)">
		<path class="st7" d="M1399.2,974.8L1389,979l10.2,4.2l11.8-4.2"/>
	</g>
	<g transform="translate(-29,-113) scale(1,1)">
		<path class="st6" d="M1399.2,974.8L1389,979l10.2,4.2l11.8-4.2L1399.2,974.8"/>
	</g>
	<g transform="translate(-29,-113) scale(1,1)">
		<g>
			<path class="st6" d="M0,0"/>
			<text transform="matrix(1 0 0 1 1405.5 948.5)" class="st7 st5 st4">+metadataMetaData</text>
		</g>
	</g>
	<g transform="translate(-29,-113) scale(1,1)">
		<g>
			<path class="st7" d="M0,0"/>
			<text transform="matrix(1 0 0 1 1400.5 995.5)" class="st7 st5 st4">0..*</text>
		</g>
	</g>
	<g transform="translate(-29,-113) scale(1,1)">
		<rect x="295" y="967" class="st0" width="93.2" height="87"/>
	</g>
	<g transform="translate(-29,-113) scale(1,1)">
		<rect x="288" y="960" class="st1" width="93.2" height="87"/>
	</g>
	<g transform="translate(-29,-113) scale(1,1)">
		<path class="st2" d="M288,960h93.2v87H288V960z"/>
	</g>
	<g transform="translate(-29,-113) scale(1,1)">
		<path class="st2" d="M288,985h93.2"/>
	</g>
	<g transform="translate(-29,-113) scale(1,1)">
		<path class="st2" d="M288,1038h93.2"/>
	</g>
	<g transform="translate(-29,-113) scale(1,1)">
		<g>
			<path class="st2" d="M0,0"/>
			<text transform="matrix(1 0 0 1 306.4141 979.5)" class="st3 st4">MetaData</text>
		</g>
	</g>
	<g transform="translate(-29,-113) scale(1,1)">
		<g>
			<path d="M0,0"/>
			<text transform="matrix(1 0 0 1 293 1002.5)" class="st5 st4">+time</text>
		</g>
	</g>
	<g transform="translate(-29,-113) scale(1,1)">
		<g>
			<path d="M0,0"/>
			<text transform="matrix(1 0 0 1 293 1017.5)" class="st5 st4">+lastUpdate</text>
		</g>
	</g>
	<g transform="translate(-29,-113) scale(1,1)">
		<g>
			<path d="M0,0"/>
			<text transform="matrix(1 0 0 1 293 1032.5)" class="st5 st4">+batteryStatus</text>
		</g>
	</g>
	<g transform="translate(-29,-113) scale(1,1)">
		<path class="st6" d="M334,960v-45h76v64h-29"/>
	</g>
	<g transform="translate(-29,-113) scale(1,1)">
		<path class="st7" d="M391.2,974.8L381,979l10.2,4.2L403,979"/>
	</g>
	<g transform="translate(-29,-113) scale(1,1)">
		<path class="st6" d="M391.2,974.8L381,979l10.2,4.2L403,979L391.2,974.8"/>
	</g>
	<g transform="translate(-29,-113) scale(1,1)">
		<g>
			<path class="st6" d="M0,0"/>
			<text transform="matrix(1 0 0 1 354.5 895.5)" class="st7 st5 st4">+metadataMetaData</text>
		</g>
	</g>
	<g transform="translate(-29,-113) scale(1,1)">
		<g>
			<path class="st7" d="M0,0"/>
			<text transform="matrix(1 0 0 1 392.5 995.5)" class="st7 st5 st4">0..*</text>
		</g>
	</g>
	<g transform="translate(-29,-113) scale(1,1)">
		<rect x="127" y="799" class="st0" width="93.2" height="87"/>
	</g>
	<g transform="translate(-29,-113) scale(1,1)">
		<rect x="120" y="792" class="st1" width="93.2" height="87"/>
	</g>
	<g transform="translate(-29,-113) scale(1,1)">
		<path class="st2" d="M120,792h93.2v87H120V792z"/>
	</g>
	<g transform="translate(-29,-113) scale(1,1)">
		<path class="st2" d="M120,817h93.2"/>
	</g>
	<g transform="translate(-29,-113) scale(1,1)">
		<path class="st2" d="M120,870h93.2"/>
	</g>
	<g transform="translate(-29,-113) scale(1,1)">
		<g>
			<path class="st2" d="M0,0"/>
			<text transform="matrix(1 0 0 1 138.4141 811.5)" class="st3 st4">MetaData</text>
		</g>
	</g>
	<g transform="translate(-29,-113) scale(1,1)">
		<g>
			<path d="M0,0"/>
			<text transform="matrix(1 0 0 1 125 834.5)" class="st5 st4">+time</text>
		</g>
	</g>
	<g transform="translate(-29,-113) scale(1,1)">
		<g>
			<path d="M0,0"/>
			<text transform="matrix(1 0 0 1 125 849.5)" class="st5 st4">+lastUpdate</text>
		</g>
	</g>
	<g transform="translate(-29,-113) scale(1,1)">
		<g>
			<path d="M0,0"/>
			<text transform="matrix(1 0 0 1 125 864.5)" class="st5 st4">+batteryStatus</text>
		</g>
	</g>
	<g transform="translate(-29,-113) scale(1,1)">
		<path class="st6" d="M152,792v-16H80v59h40"/>
	</g>
	<g transform="translate(-29,-113) scale(1,1)">
		<path class="st7" d="M109.8,839.2L120,835l-10.2-4.2L98,835"/>
	</g>
	<g transform="translate(-29,-113) scale(1,1)">
		<path class="st6" d="M109.8,839.2L120,835l-10.2-4.2L98,835L109.8,839.2"/>
	</g>
	<g transform="translate(-29,-113) scale(1,1)">
		<g>
			<path class="st6" d="M0,0"/>
			<text transform="matrix(1 0 0 1 54.5 772.5)" class="st7 st5 st4">+metadataMetaData</text>
		</g>
	</g>
	<g transform="translate(-29,-113) scale(1,1)">
		<g>
			<path class="st7" d="M0,0"/>
			<text transform="matrix(1 0 0 1 88.5 830.5)" class="st7 st5 st4">0..*</text>
		</g>
	</g>
	<g transform="translate(-29,-113) scale(1,1)">
		<path class="st6" d="M1330,936v-49"/>
	</g>
	<g transform="translate(-29,-113) scale(1,1)">
		<path class="st7" d="M1334.2,897.2L1330,887l-4.2,10.2l4.2,11.8"/>
	</g>
	<g transform="translate(-29,-113) scale(1,1)">
		<path class="st6" d="M1334.2,897.2L1330,887l-4.2,10.2l4.2,11.8L1334.2,897.2"/>
	</g>
	<g transform="translate(-29,-113) scale(1,1)">
		<path class="st6" d="M381,1007h75"/>
	</g>
	<g transform="translate(-29,-113) scale(1,1)">
		<path class="st7" d="M445.8,1011.2l10.2-4.2l-10.2-4.2L434,1007"/>
	</g>
	<g transform="translate(-29,-113) scale(1,1)">
		<path class="st6" d="M445.8,1011.2l10.2-4.2l-10.2-4.2L434,1007L445.8,1011.2"/>
	</g>
	<g transform="translate(-29,-113) scale(1,1)">
		<path class="st6" d="M213,847h11"/>
	</g>
	<g transform="translate(-29,-113) scale(1,1)">
		<path class="st7" d="M213.8,851.2L224,847l-10.2-4.2L202,847"/>
	</g>
	<g transform="translate(-29,-113) scale(1,1)">
		<path class="st6" d="M213.8,851.2L224,847l-10.2-4.2L202,847L213.8,851.2"/>
	</g>
	<g transform="translate(-29,-113) scale(1,1)">
		<path class="st6" d="M167,287v-46h25"/>
	</g>
	<g transform="translate(-29,-113) scale(1,1)">
		<path class="st7" d="M181.8,245.2L192,241l-10.2-4.2L170,241"/>
	</g>
	<g transform="translate(-29,-113) scale(1,1)">
		<path class="st6" d="M181.8,245.2L192,241l-10.2-4.2L170,241L181.8,245.2"/>
	</g>
	<g transform="translate(-29,-113) scale(1,1)">
		<rect x="911" y="623" class="st0" width="50.9" height="44"/>
	</g>
	<g transform="translate(-29,-113) scale(1,1)">
		<rect x="904" y="616" class="st7" width="50.9" height="44"/>
	</g>
	<g transform="translate(-29,-113) scale(1,1)">
		<path class="st2" d="M904,616h50.9v44H904V616z"/>
	</g>
	<g transform="translate(-29,-113) scale(1,1)">
		<path class="st2" d="M904,641h50.9"/>
	</g>
	<g transform="translate(-29,-113) scale(1,1)">
		<path class="st2" d="M904,651h50.9"/>
	</g>
	<g transform="translate(-29,-113) scale(1,1)">
		<g>
			<path class="st2" d="M0,0"/>
			<text transform="matrix(1 0 0 1 912.1213 635.5)" class="st3 st4">Room</text>
		</g>
	</g>
	<g transform="translate(-29,-113) scale(1,1)">
		<rect x="791" y="623" class="st0" width="50.9" height="44"/>
	</g>
	<g transform="translate(-29,-113) scale(1,1)">
		<rect x="784" y="616" class="st7" width="50.9" height="44"/>
	</g>
	<g transform="translate(-29,-113) scale(1,1)">
		<path class="st2" d="M784,616h50.9v44H784V616z"/>
	</g>
	<g transform="translate(-29,-113) scale(1,1)">
		<path class="st2" d="M784,641h50.9"/>
	</g>
	<g transform="translate(-29,-113) scale(1,1)">
		<path class="st2" d="M784,651h50.9"/>
	</g>
	<g transform="translate(-29,-113) scale(1,1)">
		<g>
			<path class="st2" d="M0,0"/>
			<text transform="matrix(1 0 0 1 795.365 635.5)" class="st3 st4">Light</text>
		</g>
	</g>
	<g transform="translate(-29,-113) scale(1,1)">
		<path class="st10" d="M677,760h35v112h-51"/>
	</g>
	<g transform="translate(-29,-113) scale(1,1)">
		<path class="st7" d="M681.3,863.6L661,872l20.3,8.4"/>
	</g>
	<g transform="translate(-29,-113) scale(1,1)">
		<path class="st6" d="M681.3,863.6L661,872l20.3,8.4V863.6"/>
	</g>
	<g transform="translate(-29,-113) scale(1,1)">
		<path class="st10" d="M663,701h146v-41"/>
	</g>
	<g transform="translate(-29,-113) scale(1,1)">
		<path class="st7" d="M817.4,680.3L809,660l-8.4,20.3"/>
	</g>
	<g transform="translate(-29,-113) scale(1,1)">
		<path class="st6" d="M817.4,680.3L809,660l-8.4,20.3H817.4"/>
	</g>
	<g transform="translate(-29,-113) scale(1,1)">
		<path class="st10" d="M931,752v-92"/>
	</g>
	<g transform="translate(-29,-113) scale(1,1)">
		<path class="st7" d="M939.4,680.3L931,660l-8.4,20.3"/>
	</g>
	<g transform="translate(-29,-113) scale(1,1)">
		<path class="st6" d="M939.4,680.3L931,660l-8.4,20.3H939.4"/>
	</g>
	<g transform="translate(-29,-113) scale(1,1)">
		<rect x="695" y="623" class="st0" width="50.9" height="44"/>
	</g>
	<g transform="translate(-29,-113) scale(1,1)">
		<rect x="688" y="616" class="st7" width="50.9" height="44"/>
	</g>
	<g transform="translate(-29,-113) scale(1,1)">
		<path class="st2" d="M688,616h50.9v44H688V616z"/>
	</g>
	<g transform="translate(-29,-113) scale(1,1)">
		<path class="st2" d="M688,641h50.9"/>
	</g>
	<g transform="translate(-29,-113) scale(1,1)">
		<path class="st2" d="M688,651h50.9"/>
	</g>
	<g transform="translate(-29,-113) scale(1,1)">
		<g>
			<path class="st2" d="M0,0"/>
			<text transform="matrix(1 0 0 1 694.3154 635.5)" class="st3 st4">Switch</text>
		</g>
	</g>
	<g transform="translate(-29,-113) scale(1,1)">
		<path class="st10" d="M471,474h153v166h64"/>
	</g>
	<g transform="translate(-29,-113) scale(1,1)">
		<path class="st7" d="M667.7,648.4L688,640l-20.3-8.4"/>
	</g>
	<g transform="translate(-29,-113) scale(1,1)">
		<path class="st6" d="M667.7,648.4L688,640l-20.3-8.4V648.4"/>
	</g>
	<g transform="translate(-29,-113) scale(1,1)">
		<rect x="687" y="439" class="st0" width="64.6" height="57"/>
	</g>
	<g transform="translate(-29,-113) scale(1,1)">
		<rect x="680" y="432" class="st7" width="64.6" height="57"/>
	</g>
	<g transform="translate(-29,-113) scale(1,1)">
		<path class="st2" d="M680,432h64.6v57H680V432z"/>
	</g>
	<g transform="translate(-29,-113) scale(1,1)">
		<path class="st2" d="M680,470h64.6"/>
	</g>
	<g transform="translate(-29,-113) scale(1,1)">
		<path class="st2" d="M680,480h64.6"/>
	</g>
	<g transform="translate(-29,-113) scale(1,1)">
		<g>
			<path class="st2" d="M0,0"/>
			<text transform="matrix(1 0 0 1 687.3723 451.5)" class="st3 st4">Intrusion</text>
			<text transform="matrix(1 0 0 1 690.6318 464.5)" class="st3 st4">System</text>
		</g>
	</g>
	<g transform="translate(-29,-113) scale(1,1)">
		<path class="st10" d="M529,288h183v144"/>
	</g>
	<g transform="translate(-29,-113) scale(1,1)">
		<path class="st7" d="M703.6,411.7L712,432l8.4-20.3"/>
	</g>
	<g transform="translate(-29,-113) scale(1,1)">
		<path class="st6" d="M703.6,411.7L712,432l8.4-20.3H703.6"/>
	</g>
	<g transform="translate(-29,-113) scale(1,1)">
		<rect x="567" y="151" class="st0" width="119.9" height="85"/>
	</g>
	<g transform="translate(-29,-113) scale(1,1)">
		<rect x="560" y="144" class="st7" width="119.9" height="85"/>
	</g>
	<g transform="translate(-29,-113) scale(1,1)">
		<path class="st2" d="M560,144h119.9v85H560V144z"/>
	</g>
	<g transform="translate(-29,-113) scale(1,1)">
		<path class="st2" d="M560,182h119.9"/>
	</g>
	<g transform="translate(-29,-113) scale(1,1)">
		<path class="st2" d="M560,192h119.9"/>
	</g>
	<g transform="translate(-29,-113) scale(1,1)">
		<g>
			<path class="st2" d="M0,0"/>
			<text transform="matrix(1 0 0 1 590.3381 163.5)" class="st3 st4">IS Service</text>
			<text transform="matrix(1 0 0 1 587.4468 176.5)" class="st3 st4">Description</text>
		</g>
	</g>
	<g transform="translate(-29,-113) scale(1,1)">
		<g>
			<path d="M0,0"/>
			<text transform="matrix(1 0 0 1 565 209.5)" class="st5 st4">+GetStatus()</text>
		</g>
	</g>
	<g transform="translate(-29,-113) scale(1,1)">
		<g>
			<path d="M0,0"/>
			<text transform="matrix(1 0 0 1 565 224.5)" class="st5 st4">+SendNotification()</text>
		</g>
	</g>
	<g transform="translate(-29,-113) scale(1,1)">
		<rect x="543" y="343" class="st0" width="121.3" height="100"/>
	</g>
	<g transform="translate(-29,-113) scale(1,1)">
		<rect x="536" y="336" class="st7" width="121.3" height="100"/>
	</g>
	<g transform="translate(-29,-113) scale(1,1)">
		<path class="st2" d="M536,336h121.3v100H536V336z"/>
	</g>
	<g transform="translate(-29,-113) scale(1,1)">
		<path class="st2" d="M536,374h121.3"/>
	</g>
	<g transform="translate(-29,-113) scale(1,1)">
		<path class="st2" d="M536,384h121.3"/>
	</g>
	<g transform="translate(-29,-113) scale(1,1)">
		<g>
			<path class="st2" d="M0,0"/>
			<text transform="matrix(1 0 0 1 554.0491 355.5)" class="st3 st4">Switch Service</text>
			<text transform="matrix(1 0 0 1 564.1609 368.5)" class="st3 st4">Description</text>
		</g>
	</g>
	<g transform="translate(-29,-113) scale(1,1)">
		<g>
			<path d="M0,0"/>
			<text transform="matrix(1 0 0 1 541 401.5)" class="st5 st4">+PollEvent()</text>
		</g>
	</g>
	<g transform="translate(-29,-113) scale(1,1)">
		<g>
			<path d="M0,0"/>
			<text transform="matrix(1 0 0 1 541 416.5)" class="st5 st4">+GetSwitchStatus()</text>
		</g>
	</g>
	<g transform="translate(-29,-113) scale(1,1)">
		<g>
			<path d="M0,0"/>
			<text transform="matrix(1 0 0 1 541 431.5)" class="st5 st4">+setSwitch()</text>
		</g>
	</g>
	<g transform="translate(-29,-113) scale(1,1)">
		<rect x="743" y="143" class="st0" width="125" height="100"/>
	</g>
	<g transform="translate(-29,-113) scale(1,1)">
		<rect x="736" y="136" class="st7" width="125" height="100"/>
	</g>
	<g transform="translate(-29,-113) scale(1,1)">
		<path class="st2" d="M736,136h125v100H736V136z"/>
	</g>
	<g transform="translate(-29,-113) scale(1,1)">
		<path class="st2" d="M736,174h125"/>
	</g>
	<g transform="translate(-29,-113) scale(1,1)">
		<path class="st2" d="M736,184h125"/>
	</g>
	<g transform="translate(-29,-113) scale(1,1)">
		<g>
			<path class="st2" d="M0,0"/>
			<text transform="matrix(1 0 0 1 768.8613 155.5)" class="st3 st4">Irr Service</text>
			<text transform="matrix(1 0 0 1 765.9636 168.5)" class="st3 st4">Description</text>
		</g>
	</g>
	<g transform="translate(-29,-113) scale(1,1)">
		<g>
			<path d="M0,0"/>
			<text transform="matrix(1 0 0 1 741 201.5)" class="st5 st4">+GetStatus()</text>
		</g>
	</g>
	<g transform="translate(-29,-113) scale(1,1)">
		<g>
			<path d="M0,0"/>
			<text transform="matrix(1 0 0 1 741 216.5)" class="st5 st4">+TurnOnValve(time)</text>
		</g>
	</g>
	<g transform="translate(-29,-113) scale(1,1)">
		<g>
			<path d="M0,0"/>
			<text transform="matrix(1 0 0 1 741 231.5)" class="st5 st4">+TurnOffVlave()</text>
		</g>
	</g>
	<g transform="translate(-29,-113) scale(1,1)">
		<rect x="439" y="695" class="st0" width="113.2" height="115"/>
	</g>
	<g transform="translate(-29,-113) scale(1,1)">
		<rect x="432" y="688" class="st7" width="113.2" height="115"/>
	</g>
	<g transform="translate(-29,-113) scale(1,1)">
		<path class="st2" d="M432,688h113.2v115H432V688z"/>
	</g>
	<g transform="translate(-29,-113) scale(1,1)">
		<path class="st2" d="M432,726h113.2"/>
	</g>
	<g transform="translate(-29,-113) scale(1,1)">
		<path class="st2" d="M432,736h113.2"/>
	</g>
	<g transform="translate(-29,-113) scale(1,1)">
		<g>
			<path class="st2" d="M0,0"/>
			<text transform="matrix(1 0 0 1 447.7639 707.5)" class="st3 st4">Lights Service</text>
			<text transform="matrix(1 0 0 1 456.0762 720.5)" class="st3 st4">Description</text>
		</g>
	</g>
	<g transform="translate(-29,-113) scale(1,1)">
		<g>
			<path d="M0,0"/>
			<text transform="matrix(1 0 0 1 437 753.5)" class="st5 st4">+SetRedValue()</text>
		</g>
	</g>
	<g transform="translate(-29,-113) scale(1,1)">
		<g>
			<path d="M0,0"/>
			<text transform="matrix(1 0 0 1 437 768.5)" class="st5 st4">+SetBlueValue()</text>
		</g>
	</g>
	<g transform="translate(-29,-113) scale(1,1)">
		<g>
			<path d="M0,0"/>
			<text transform="matrix(1 0 0 1 437 783.5)" class="st5 st4">+SetGreenValue()</text>
		</g>
	</g>
	<g transform="translate(-29,-113) scale(1,1)">
		<g>
			<path d="M0,0"/>
			<text transform="matrix(1 0 0 1 437 798.5)" class="st5 st4">+PollEvent()</text>
		</g>
	</g>
	<g transform="translate(-29,-113) scale(1,1)">
		<rect x="1127" y="567" class="st0" width="132.9" height="145"/>
	</g>
	<g transform="translate(-29,-113) scale(1,1)">
		<rect x="1120" y="560" class="st7" width="132.9" height="145"/>
	</g>
	<g transform="translate(-29,-113) scale(1,1)">
		<path class="st2" d="M1120,560h132.9v145H1120V560z"/>
	</g>
	<g transform="translate(-29,-113) scale(1,1)">
		<path class="st2" d="M1120,598h132.9"/>
	</g>
	<g transform="translate(-29,-113) scale(1,1)">
		<path class="st2" d="M1120,608h132.9"/>
	</g>
	<g transform="translate(-29,-113) scale(1,1)">
		<g>
			<path class="st2" d="M0,0"/>
			<text transform="matrix(1 0 0 1 1145.6345 579.5)" class="st3 st4">Room Service</text>
			<text transform="matrix(1 0 0 1 1153.9404 592.5)" class="st3 st4">Description</text>
		</g>
	</g>
	<g transform="translate(-29,-113) scale(1,1)">
		<g>
			<path d="M0,0"/>
			<text transform="matrix(1 0 0 1 1125 625.5)" class="st5 st4">+GetTemperature()</text>
		</g>
	</g>
	<g transform="translate(-29,-113) scale(1,1)">
		<g>
			<path d="M0,0"/>
			<text transform="matrix(1 0 0 1 1125 640.5)" class="st5 st4">+getUVIntensity()</text>
		</g>
	</g>
	<g transform="translate(-29,-113) scale(1,1)">
		<g>
			<path d="M0,0"/>
			<text transform="matrix(1 0 0 1 1125 655.5)" class="st5 st4">+getHumidity()</text>
		</g>
	</g>
	<g transform="translate(-29,-113) scale(1,1)">
		<g>
			<path d="M0,0"/>
			<text transform="matrix(1 0 0 1 1125 670.5)" class="st5 st4">+getLightIntensity()</text>
		</g>
	</g>
	<g transform="translate(-29,-113) scale(1,1)">
		<g>
			<path d="M0,0"/>
			<text transform="matrix(1 0 0 1 1125 685.5)" class="st5 st4">+calculateAirQuality()</text>
		</g>
	</g>
	<g transform="translate(-29,-113) scale(1,1)">
		<g>
			<path d="M0,0"/>
			<text transform="matrix(1 0 0 1 1125 700.5)" class="st5 st4">+checkThreshold()</text>
		</g>
	</g>
	<g transform="translate(-29,-113) scale(1,1)">
		<path class="st10" d="M529,289h87v-60"/>
	</g>
	<g transform="translate(-29,-113) scale(1,1)">
		<path class="st7" d="M624.4,249.3L616,229l-8.4,20.3"/>
	</g>
	<g transform="translate(-29,-113) scale(1,1)">
		<path class="st6" d="M624.4,249.3L616,229l-8.4,20.3H624.4"/>
	</g>
	<g transform="translate(-29,-113) scale(1,1)">
		<path class="st10" d="M872,288h-88v-52"/>
	</g>
	<g transform="translate(-29,-113) scale(1,1)">
		<path class="st7" d="M792.4,256.3L784,236l-8.4,20.3"/>
	</g>
	<g transform="translate(-29,-113) scale(1,1)">
		<path class="st6" d="M792.4,256.3L784,236l-8.4,20.3H792.4"/>
	</g>
	<g transform="translate(-29,-113) scale(1,1)">
		<path class="st10" d="M471,464h113v-28"/>
	</g>
	<g transform="translate(-29,-113) scale(1,1)">
		<path class="st7" d="M592.4,456.3L584,436l-8.4,20.3"/>
	</g>
	<g transform="translate(-29,-113) scale(1,1)">
		<path class="st6" d="M592.4,456.3L584,436l-8.4,20.3H592.4"/>
	</g>
	<g transform="translate(-29,-113) scale(1,1)">
		<path class="st10" d="M967,755h57v-91h96"/>
	</g>
	<g transform="translate(-29,-113) scale(1,1)">
		<path class="st7" d="M1099.7,672.4l20.3-8.4l-20.3-8.4"/>
	</g>
	<g transform="translate(-29,-113) scale(1,1)">
		<path class="st6" d="M1099.7,672.4l20.3-8.4l-20.3-8.4V672.4"/>
	</g>
	<g transform="translate(-29,-113) scale(1,1)">
		<path class="st10" d="M608,720h-63"/>
	</g>
	<g transform="translate(-29,-113) scale(1,1)">
		<path class="st7" d="M565.3,711.6L545,720l20.3,8.4"/>
	</g>
	<g transform="translate(-29,-113) scale(1,1)">
		<path class="st6" d="M565.3,711.6L545,720l20.3,8.4V711.6"/>
	</g>
</g>
</svg>
