<svg xmlns="http://www.w3.org/2000/svg" xmlns:xlink="http://www.w3.org/1999/xlink" viewBox="0 0 1921.4 371.8"><defs><radialGradient id="radial-gradient" cx="449.25" cy="355.93" r="473.26" gradientUnits="userSpaceOnUse"><stop offset="0" stop-color="#f04"/><stop offset="0.08" stop-color="#f60041"/><stop offset="0.23" stop-color="#dc003b"/><stop offset="0.41" stop-color="#b30030"/><stop offset="0.62" stop-color="#790020"/><stop offset="0.85" stop-color="#31000d"/><stop offset="1"/></radialGradient><radialGradient id="radial-gradient-2" cx="486.31" cy="457.44" r="674.14" gradientUnits="userSpaceOnUse"><stop offset="0" stop-color="#f04"/><stop offset="0.41" stop-color="#9a0029"/><stop offset="1"/></radialGradient><radialGradient id="radial-gradient-3" cx="486.31" cy="457.44" r="674.14" xlink:href="#radial-gradient-2"/><radialGradient id="radial-gradient-4" cx="486.31" cy="457.44" r="674.14" xlink:href="#radial-gradient-2"/><radialGradient id="radial-gradient-5" cx="25.48" cy="396.21" r="387.04" gradientUnits="userSpaceOnUse"><stop offset="0" stop-color="#f04"/><stop offset="0.26" stop-color="#ba0032"/><stop offset="0.77" stop-color="#35000e"/><stop offset="1"/></radialGradient><radialGradient id="radial-gradient-6" cx="-0.3" cy="441.32" r="894.52" xlink:href="#radial-gradient"/><radialGradient id="radial-gradient-7" cx="181.78" cy="465.49" r="671.95" xlink:href="#radial-gradient-5"/><radialGradient id="radial-gradient-8" cx="1408.25" cy="356.02" r="472.87" gradientTransform="matrix(-1, 0, 0, 1, 2880.82, 0)" xlink:href="#radial-gradient"/><radialGradient id="radial-gradient-9" cx="1445.29" cy="457.45" r="673.58" gradientTransform="matrix(-1, 0, 0, 1, 2880.82, 0)" xlink:href="#radial-gradient-2"/><radialGradient id="radial-gradient-10" cx="1445.28" cy="457.45" r="673.59" gradientTransform="matrix(-1, 0, 0, 1, 2880.82, 0)" xlink:href="#radial-gradient-2"/><radialGradient id="radial-gradient-11" cx="1445.28" cy="457.45" r="673.59" gradientTransform="matrix(-1, 0, 0, 1, 2880.82, 0)" xlink:href="#radial-gradient-2"/><radialGradient id="radial-gradient-12" cx="1646.52" cy="404.32" r="744.3" gradientTransform="matrix(-1, 0, 0, 1, 2880.82, 0)" xlink:href="#radial-gradient-5"/><radialGradient id="radial-gradient-13" cx="1579.98" cy="372.12" r="224.65" gradientTransform="matrix(-1, 0, 0, 1, 2880.82, 0)" xlink:href="#radial-gradient"/><radialGradient id="radial-gradient-14" cx="984.84" cy="396.27" r="386.72" gradientTransform="matrix(-1, 0, 0, 1, 2880.82, 0)" xlink:href="#radial-gradient-5"/><radialGradient id="radial-gradient-15" cx="959.08" cy="441.35" r="893.78" gradientTransform="matrix(-1, 0, 0, 1, 2880.82, 0)" xlink:href="#radial-gradient"/><radialGradient id="radial-gradient-16" cx="1141" cy="465.5" r="671.4" gradientTransform="matrix(-1, 0, 0, 1, 2880.82, 0)" xlink:href="#radial-gradient-5"/><linearGradient id="Blue_Sky" x1="4.67" y1="4213.5" x2="11.12" y2="4213.5" gradientTransform="translate(5485 298.9) rotate(90)" gradientUnits="userSpaceOnUse"><stop offset="0" stop-color="#3ddeed"/><stop offset="1" stop-color="#3ddeed"/></linearGradient><linearGradient id="Blue_Sky-2" x1="7.26" y1="4213.5" x2="8.52" y2="4213.5" gradientTransform="translate(1263.6 -3906.7)" xlink:href="#Blue_Sky"/><linearGradient id="Blue_Sky-3" x1="4.67" y1="4201.36" x2="11.12" y2="4201.36" xlink:href="#Blue_Sky"/><linearGradient id="Blue_Sky-4" x1="7.26" y1="4201.36" x2="8.52" y2="4201.36" gradientTransform="translate(1275.7 -3894.5)" xlink:href="#Blue_Sky"/><linearGradient id="Blue_Sky-5" x1="16.22" y1="4225.41" x2="22.67" y2="4225.41" xlink:href="#Blue_Sky"/><linearGradient id="Blue_Sky-6" x1="18.82" y1="4225.41" x2="20.08" y2="4225.41" gradientTransform="translate(1240.1 -3907)" xlink:href="#Blue_Sky"/><linearGradient id="Blue_Sky-7" x1="16.22" y1="4213.27" x2="22.67" y2="4213.27" xlink:href="#Blue_Sky"/><linearGradient id="Blue_Sky-8" x1="18.82" y1="4213.27" x2="20.08" y2="4213.27" gradientTransform="translate(1252.3 -3894.9)" xlink:href="#Blue_Sky"/><linearGradient id="Blue_Sky-9" x1="4.67" y1="4249.04" x2="11.12" y2="4249.04" xlink:href="#Blue_Sky"/><linearGradient id="Blue_Sky-10" x1="7.26" y1="4249.04" x2="8.52" y2="4249.04" gradientTransform="translate(1228.1 -3942.2)" xlink:href="#Blue_Sky"/><linearGradient id="Blue_Sky-11" x1="4.67" y1="4236.91" x2="11.12" y2="4236.91" xlink:href="#Blue_Sky"/><linearGradient id="Blue_Sky-12" x1="7.26" y1="4236.91" x2="8.52" y2="4236.91" gradientTransform="translate(1240.2 -3930.1)" xlink:href="#Blue_Sky"/><linearGradient id="Blue_Sky-13" x1="16.22" y1="4266.06" x2="22.67" y2="4266.06" xlink:href="#Blue_Sky"/><linearGradient id="Blue_Sky-14" x1="18.82" y1="4266.06" x2="20.08" y2="4266.06" gradientTransform="translate(1199.5 -3947.7)" xlink:href="#Blue_Sky"/><linearGradient id="Blue_Sky-15" x1="16.22" y1="4253.93" x2="22.67" y2="4253.93" xlink:href="#Blue_Sky"/><linearGradient id="Blue_Sky-16" x1="18.82" y1="4253.93" x2="20.08" y2="4253.93" gradientTransform="translate(1211.6 -3935.6)" xlink:href="#Blue_Sky"/><radialGradient id="radial-gradient-17" cx="89.29" cy="347.6" r="195.89" gradientUnits="userSpaceOnUse"><stop offset="0" stop-color="#002c60"/><stop offset="0.2" stop-color="#002046"/><stop offset="0.55" stop-color="#000f20"/><stop offset="0.83" stop-color="#000409"/><stop offset="1"/></radialGradient><radialGradient id="radial-gradient-18" cx="58.38" cy="347.6" r="195.89" xlink:href="#radial-gradient-17"/><radialGradient id="radial-gradient-19" cx="73.84" cy="347.6" r="195.89" xlink:href="#radial-gradient-17"/><radialGradient id="radial-gradient-20" cx="158.17" cy="289.93" r="1.85" xlink:href="#radial-gradient-17"/><radialGradient id="radial-gradient-21" cx="73.84" cy="347.6" r="195.89" xlink:href="#radial-gradient-17"/><radialGradient id="radial-gradient-22" cx="73.84" cy="347.6" r="195.89" xlink:href="#radial-gradient-17"/><radialGradient id="radial-gradient-23" cx="158.17" cy="298.75" r="1.79" xlink:href="#radial-gradient-17"/><radialGradient id="radial-gradient-24" cx="104.73" cy="347.6" r="195.92" xlink:href="#radial-gradient-17"/><radialGradient id="radial-gradient-25" cx="73.82" cy="347.6" r="195.93" xlink:href="#radial-gradient-17"/><radialGradient id="radial-gradient-26" cx="73.82" cy="347.6" r="195.93" xlink:href="#radial-gradient-17"/><radialGradient id="radial-gradient-27" cx="42.99" cy="347.6" r="195.78" xlink:href="#radial-gradient-17"/><radialGradient id="radial-gradient-28" cx="89.29" cy="332.22" r="195.89" xlink:href="#radial-gradient-17"/><radialGradient id="radial-gradient-29" cx="58.38" cy="332.22" r="195.89" xlink:href="#radial-gradient-17"/><radialGradient id="radial-gradient-30" cx="73.84" cy="332.22" r="195.89" xlink:href="#radial-gradient-17"/><radialGradient id="radial-gradient-31" cx="73.84" cy="332.22" r="195.89" xlink:href="#radial-gradient-17"/><radialGradient id="radial-gradient-32" cx="158.17" cy="274.56" r="1.85" xlink:href="#radial-gradient-17"/><radialGradient id="radial-gradient-33" cx="158.17" cy="283.37" r="1.79" xlink:href="#radial-gradient-17"/><radialGradient id="radial-gradient-34" cx="73.84" cy="332.22" r="195.89" xlink:href="#radial-gradient-17"/><radialGradient id="radial-gradient-35" cx="104.73" cy="332.22" r="195.92" xlink:href="#radial-gradient-17"/><radialGradient id="radial-gradient-36" cx="73.82" cy="332.22" r="195.93" xlink:href="#radial-gradient-17"/><radialGradient id="radial-gradient-37" cx="73.82" cy="332.22" r="195.93" xlink:href="#radial-gradient-17"/><radialGradient id="radial-gradient-38" cx="42.99" cy="332.22" r="195.78" xlink:href="#radial-gradient-17"/><radialGradient id="radial-gradient-39" cx="135.12" cy="307.52" r="89" gradientUnits="userSpaceOnUse"><stop offset="0" stop-color="#f04"/><stop offset="0.1" stop-color="#e0003c"/><stop offset="0.35" stop-color="#910027"/><stop offset="0.58" stop-color="#530016"/><stop offset="0.77" stop-color="#26000a"/><stop offset="0.91" stop-color="#0a0003"/><stop offset="1"/></radialGradient><radialGradient id="radial-gradient-40" cx="155.69" cy="341.05" r="125.36" xlink:href="#radial-gradient-39"/><radialGradient id="radial-gradient-41" cx="139.62" cy="304.33" r="106.05" xlink:href="#radial-gradient-39"/><radialGradient id="radial-gradient-42" cx="139.62" cy="304.33" r="106.05" xlink:href="#radial-gradient-39"/></defs><g style="isolation:isolate"><g id="Layer_2" data-name="Layer 2"><g id="Security-First-Layer"><g id="Wire-frame" style="opacity:0.6000000000000001"><g style="opacity:0.84"><g style="opacity:0.2"><g style="mix-blend-mode:color-dodge"><polygon points="938.3 175.8 862.7 219.5 787 175.8 710.1 220.2 710.1 371.7 712.6 371.7 712.6 221.6 787 178.7 862.7 222.4 938.3 178.7 961.1 191.8 961.1 188.9 938.3 175.8" style="fill:#c9c9c9"/></g><g style="mix-blend-mode:color-dodge"><path d="M787,0a2.5,2.5,0,0,0-2.5,2.5v.7h5.1V2.5A2.6,2.6,0,0,0,787,0Z" style="fill:#595959"/><polygon points="865.2 132.1 789.6 88.4 789.6 3.2 784.5 3.2 784.5 91.3 860.2 135 860.2 371.7 865.2 371.7 865.2 132.1" style="fill:#595959"/><polygon points="899 371.7 909.1 371.7 961.1 341.7 961.1 335.9 899 371.7" style="fill:#595959"/></g><g style="mix-blend-mode:color-dodge"><polygon points="483.2 3.2 488.1 3.2 483.2 0.3 483.2 3.2" style="fill:#515151"/><polygon points="561.3 220.2 561.3 45.5 488.1 3.2 483.2 3.2 483.2 371.7 485.7 371.7 485.7 4.7 558.8 46.9 558.8 221.6 559.5 222 818.8 371.7 823.8 371.7 561.3 220.2" style="fill:#515151"/></g><g style="mix-blend-mode:color-dodge"><path d="M410,307.5l-.6-.3-227-131.1a1.3,1.3,0,0,0-1.8.4,1.4,1.4,0,0,0,.5,1.8L407.5,309v62.7H410Z" style="fill:#a0a0a0"/></g><g style="mix-blend-mode:color-dodge"><polygon points="937.1 3.2 937.1 3.2 961.1 17.1 961.1 14.2 942 3.2 937.1 3.2" style="fill:#848484"/><polygon points="863.9 45.5 863.9 3.2 861.4 3.2 861.4 46.9 961.1 104.5 961.1 101.6 863.9 45.5" style="fill:#848484"/></g><g style="mix-blend-mode:color-dodge"><path d="M485.7,349.8a2.6,2.6,0,0,0-3.5.9,2.5,2.5,0,0,0,1,3.4l30.4,17.6h10.1Z" style="fill:#c6c6c6"/><path d="M635.9,177.1V92.9l75.5,43.6,76.9-44.4a2.6,2.6,0,0,0,.9-3.5,2.5,2.5,0,0,0-3.4-.9l-74.4,42.9L630.8,84.1v96l151.1,84.5L596.4,371.7h10.1L792.1,264.6Z" style="fill:#c6c6c6"/></g><g style="mix-blend-mode:color-dodge"><path d="M479.4,177.2l80.7,46.6,78.2-45.1-78.2-48.2ZM560.1,218l-70.6-40.8L560,136.4l68.4,42.1Z" style="fill:#c9c9c9"/></g><g style="mix-blend-mode:color-dodge"><path d="M335.7,351.9a2.6,2.6,0,0,0-2.6-2.5,2.5,2.5,0,0,0-2.5,2.5v19.8h5.1Z" style="fill:#c6c6c6"/><path d="M863.9,310.4a2.4,2.4,0,0,0,1-3.4,2.6,2.6,0,0,0-3.5-.9l-76.9,44.4v21.2h5.1V353.4Z" style="fill:#c6c6c6"/><polygon points="635.9 351.9 560.1 305.3 446.3 371.7 456.3 371.7 560 311.2 630.8 354.7 630.8 371.7 635.9 371.7 635.9 351.9" style="fill:#c6c6c6"/></g><g style="mix-blend-mode:color-dodge"><polygon points="935.8 263.1 935.8 371.7 940.9 371.7 940.9 266 961.1 254.3 961.1 248.5 935.8 263.1" style="fill:#bcbcbc"/></g><g style="mix-blend-mode:color-dodge"><path d="M632.2,352.7a1.3,1.3,0,0,0,.5,1.7l32,17.3h5.2l-36-19.5A1.3,1.3,0,0,0,632.2,352.7Z" style="fill:#848484"/></g></g><g style="mix-blend-mode:color-dodge"><path d="M538.2,191.8V153l-17.3-10V279.1l.2.2c.2,0,.3-.1.3-.2V144l16.2,9.4v38.7h.2l100.6,58.1c.1,0,.3,0,.3-.1s.1-.4-.1-.4Z" style="fill:#515151"/></g><g style="mix-blend-mode:color-dodge"><path d="M571.3,249.8l-66.9,38.6-16.2-9.3,33.5-19.4-17.1-9.8V211.1h-.1L454.2,182c-.1-.1-.3,0-.4.1s0,.3.1.4l50.2,29v38.7h.1l16.4,9.4L487,279.1l17.4,10h.1l67.1-38.7c.1-.1.2-.3.1-.4A.2.2,0,0,0,571.3,249.8Z" style="fill:#a0a0a0"/></g><g style="mix-blend-mode:color-dodge"><path d="M554.7,163.6l16.7,9.6,17.1-9.8a.6.6,0,1,0-.6-1l-16.5,9.5-17.8-10.3v21.3l33.5,18.7L537.9,230l-16.5-9.5a.4.4,0,0,0-.7.2.5.5,0,0,0,.2.8l17,9.8.3-.2,51.1-29.5-34.6-19.4Z" style="fill:#969696"/></g><g style="mix-blend-mode:color-dodge"><path d="M520,182.3l17.9,10.3,17.3-10-17.3-10.7Zm17.9,9-15.6-9,15.6-9.1,15.2,9.3Z" style="fill:#c9c9c9"/></g><g style="mix-blend-mode:color-dodge"><path d="M605,269.1l-16.8,9.6-16.8-9.6h-.1l-50.7,29.3,17,9.9,16.7-9.3c.1-.1.2-.3.1-.4a.2.2,0,0,0-.4-.1l-16.4,9.1-15.9-9.2,49.7-28.7,16.8,9.7,16.8-9.7,16.5,9.5v57.9c0,.2.1.3.2.3a.3.3,0,0,0,.3-.3V278.9h-.1Z" style="fill:#545454"/></g><g style="mix-blend-mode:color-dodge"><path d="M537.4,288.5a.6.6,0,0,0,.2.7l33.3,19.2v19.1a.5.5,0,0,0,.5.5.6.6,0,0,0,.6-.5V307.8l-33.8-19.5A.5.5,0,0,0,537.4,288.5Z" style="fill:#bababa"/></g><g style="mix-blend-mode:color-dodge"><path d="M521.4,278.6l-33.5-19.4a.6.6,0,0,0-.8.2.8.8,0,0,0,.2.8l33.6,19.3c0,.1.1.1.2.1a.5.5,0,0,0,.5-.3A.4.4,0,0,0,521.4,278.6Z" style="fill:#848484"/></g><path d="M604.7,210.8l-17.1,9.9v18.7L571.4,230l-16.7,9.7V221l-16.8-10.4-49.7,29.1V221a.6.6,0,1,0-1.2,0v20.6l50.9-29.7,15.7,9.7v20l17.8-10.3,17.4,10v-20l16.5-9.5a.8.8,0,0,0,.2-.8A.6.6,0,0,0,604.7,210.8Z" style="fill:url(#radial-gradient)"/><g style="mix-blend-mode:color-dodge"><path d="M638.2,191.4l-17,9.9v57.4L605,249.4l-17.4,10v38.1L554.7,279V259.7l-16.2-10v-19a.6.6,0,0,0-1.2,0v19.6l16.3,10v19.4l35.2,19.7V260l16.2-9.3,17.3,10V201.9l16.5-9.5c.3-.1.3-.5.2-.7A.7.7,0,0,0,638.2,191.4Z" style="fill:#bcbcbc"/></g><g style="mix-blend-mode:color-dodge"><polygon points="878.6 341 878.6 298.6 841.2 277.1 804.5 298.3 767.8 277.1 730.5 298.6 730.5 371.7 731.8 371.7 731.8 299.3 767.8 278.5 804.5 299.7 841.2 278.5 877.3 299.3 877.3 341.7 913.4 362.5 897.5 371.7 900 371.7 915.9 362.5 878.6 341" style="fill:#c9c9c9"/></g><g style="mix-blend-mode:color-dodge"><polygon points="952.6 340.6 914.6 318.7 822.9 371.7 827.8 371.7 914.6 321.6 950.1 342.1 950.1 371.7 952.6 371.7 952.6 340.6" style="fill:#595959"/><path d="M805.8,255.9l-36.7-21.2V193a1.2,1.2,0,0,0-1.3-1.2,1.2,1.2,0,0,0-1.2,1.2v43.1l36.7,21.2V371.7h2.5Z" style="fill:#595959"/></g><g style="mix-blend-mode:color-dodge"><polygon points="658.4 213.9 620.4 192 620.4 371.7 621.7 371.7 621.7 194.1 657.1 214.6 657.1 299.3 657.4 299.5 782.5 371.7 785 371.7 658.4 298.6 658.4 213.9" style="fill:#515151"/></g><g style="mix-blend-mode:color-dodge"><path d="M585,341l-.4-.2L474.5,277.2a.7.7,0,0,0-.8.2.7.7,0,0,0,.2.9l109.8,63.4v30H585Z" style="fill:#a0a0a0"/></g><g style="mix-blend-mode:color-dodge"><path d="M841.9,192.7V149.6l-38,21.9v43.1l74.7,43V215.3l36.7,21.2V192l-37.4,21.5Zm35.4,62.8-72.1-41.6V172.2l35.4-20.5v41.7l36.7,21.2ZM914,194.1v40.2l-34.8-20.1Z" style="fill:#848484"/></g><g style="mix-blend-mode:color-dodge"><path d="M694.5,277.7V236.9L731.1,258l37.4-21.5a1.4,1.4,0,0,0,.4-1.7,1.3,1.3,0,0,0-1.7-.5l-36.1,20.9-39-22.6v46.6l73.3,41-89.3,51.5H681l89.3-51.6Z" style="fill:#969696"/><path d="M621.7,361.5a1.2,1.2,0,0,0-1.3,2.1l14.1,8.1h4.9Z" style="fill:#969696"/></g><g style="mix-blend-mode:color-dodge"><path d="M951,340.8c-.2.2-.4.6-.2.8a.7.7,0,0,0,.5.4h.3l9.5-5.4v-1.4Z" style="fill:#848484"/></g><g style="mix-blend-mode:color-dodge"><path d="M951.9,241.1a1.2,1.2,0,0,0-1.2,1.2v54.9l-37.3-21.5v86.8a1.3,1.3,0,0,0,1.2,1.3,1.3,1.3,0,0,0,1.3-1.3V279.9l37.2,21.5V242.3A1.2,1.2,0,0,0,951.9,241.1Z" style="fill:#848484"/></g><g style="mix-blend-mode:screen"><path d="M548.9,362.5a1.3,1.3,0,0,0-1.3-1.2,1.3,1.3,0,0,0-1.2,1.2v9.2h2.5Z" style="fill:url(#radial-gradient-2)"/><path d="M805.2,342.4a1.4,1.4,0,0,0,.4-1.7,1.2,1.2,0,0,0-1.7-.4l-37.3,21.5v9.9h2.5v-8.5Z" style="fill:url(#radial-gradient-3)"/><polygon points="694.5 362.5 657.8 339.9 603.3 371.7 608.1 371.7 657.7 342.8 692.1 363.9 692.1 371.7 694.5 371.7 694.5 362.5" style="fill:url(#radial-gradient-4)"/></g><g style="mix-blend-mode:color-dodge"><path d="M878.6,300a1.3,1.3,0,0,0,.4-1.6,1.3,1.3,0,0,0-1.7-.5L840,319.4v52.3h2.5V320.9Z" style="fill:#bcbcbc"/></g><g style="mix-blend-mode:color-dodge"><path d="M692.7,362.9a.6.6,0,0,0,.3.8l14.7,8h2.6l-16.7-9A.7.7,0,0,0,692.7,362.9Z" style="fill:#848484"/></g><g style="mix-blend-mode:color-dodge"><path d="M842.2,318.6l-37.7-21.8L769.7,317V234.3L733,213.2V129.5a1.8,1.8,0,0,0-1.9-1.9,1.8,1.8,0,0,0-1.8,1.9v85.8L766,236.5v86.8l38.5-22.2,35.8,20.6a1.7,1.7,0,0,0,2.5-.6A1.9,1.9,0,0,0,842.2,318.6Z" style="fill:#c9c9c9"/></g><g style="mix-blend-mode:color-dodge"><path d="M73.3,191.8V153L55.9,143V279.1l.3.2c.2,0,.3-.1.3-.2V144l16.2,9.4v38.7h.1l100.6,58.1c.2,0,.4,0,.4-.1s.1-.4-.1-.4Z" style="fill:#515151"/></g><g style="mix-blend-mode:color-dodge"><path d="M39.2,250.2h.1l16.4,9.4L22.1,279.1l17.3,10h.2l67.1-38.7a.6.6,0,0,0,.1-.4.2.2,0,0,0-.4-.1l-67,38.6-16.2-9.3,33.6-19.4-17.1-9.8V211.1h-.1L0,188.2v.6l39.2,22.7Z" style="fill:#a0a0a0"/></g><g style="mix-blend-mode:color-dodge"><path d="M89.8,163.6l16.7,9.6,17.1-9.8a.8.8,0,0,0,.2-.8.6.6,0,0,0-.8-.2l-16.5,9.5L88.7,161.6v21.3l33.5,18.7L73,230l-16.5-9.5a.5.5,0,0,0-.8.2.8.8,0,0,0,.2.8L73,231.3l.3-.2,51.1-29.5L89.8,182.2Z" style="fill:#969696"/></g><g style="mix-blend-mode:color-dodge"><path d="M55.1,182.3,73,192.6l17.3-10L73,171.9Zm17.9,9-15.7-9L73,173.2l15.1,9.3Z" style="fill:#c9c9c9"/></g><g style="mix-blend-mode:color-dodge"><path d="M140.1,269.1l-16.8,9.6-16.8-9.6h-.1L55.7,298.4l17,9.9L89.4,299a.6.6,0,0,0,.1-.4.2.2,0,0,0-.4-.1l-16.4,9.1-15.9-9.2,49.7-28.7,16.8,9.7,16.8-9.7,16.4,9.5v57.9a.3.3,0,0,0,.3.3.3.3,0,0,0,.3-.3V278.9H157Z" style="fill:#545454"/></g><g style="mix-blend-mode:color-dodge"><path d="M72.5,288.5a.4.4,0,0,0,.2.7L106,308.4v19.1a.5.5,0,0,0,.5.5.6.6,0,0,0,.6-.5V307.8L73.3,288.3A.5.5,0,0,0,72.5,288.5Z" style="fill:#bababa"/></g><g style="mix-blend-mode:color-dodge"><path d="M56.5,278.6,23,259.2a.6.6,0,0,0-.8.2.5.5,0,0,0,.2.8l33.5,19.3h.3a.5.5,0,0,0,.5-.3A.4.4,0,0,0,56.5,278.6Z" style="fill:#848484"/></g><g style="mix-blend-mode:color-dodge"><path d="M139.8,210.8l-17.1,9.9v18.7L106.5,230l-16.7,9.7V221L73,210.6,23.2,239.7V221a.6.6,0,0,0-.5-.6.6.6,0,0,0-.6.6v20.6L73,211.9l15.7,9.7v20l17.8-10.3,17.3,10v-20l16.5-9.5a.5.5,0,0,0,.2-.8C140.4,210.7,140,210.7,139.8,210.8Z" style="fill:#d3d3d3"/></g><path d="M173.3,191.4l-17,9.9v57.4l-16.2-9.3-17.4,10v38.1L89.8,279V259.7l-16.3-10v-19c0-.4-.2-.6-.5-.6a.6.6,0,0,0-.6.6v19.6l16.3,10v19.4l35.1,19.7V260l16.3-9.3,17.3,10V201.9l16.5-9.5a.6.6,0,0,0,.2-.7A.7.7,0,0,0,173.3,191.4Z" style="fill:url(#radial-gradient-5)"/><g style="mix-blend-mode:color-dodge"><polygon points="413.6 341 413.6 298.6 376.3 277.1 339.6 298.3 302.9 277.1 265.6 298.6 265.6 371.7 266.8 371.7 266.8 299.3 302.9 278.5 339.6 299.7 376.3 278.5 412.4 299.3 412.4 341.7 448.5 362.5 432.6 371.7 435 371.7 450.9 362.5 413.6 341" style="fill:#c9c9c9"/></g><g style="mix-blend-mode:color-dodge"><polygon points="487.6 340.6 449.7 318.7 358 371.7 362.9 371.7 449.7 321.6 485.2 342.1 485.2 371.7 487.6 371.7 487.6 340.6" style="fill:#595959"/><path d="M340.8,255.9l-36.7-21.2V193a1.2,1.2,0,1,0-2.4,0v43.1l36.7,21.2V371.7h2.4Z" style="fill:#595959"/></g><g style="mix-blend-mode:color-dodge"><polygon points="193.4 213.9 155.5 192 155.5 371.7 156.7 371.7 156.7 194.1 192.2 214.6 192.2 299.3 192.5 299.5 317.6 371.7 320.1 371.7 193.4 298.6 193.4 213.9" style="fill:#515151"/></g><g style="mix-blend-mode:color-dodge"><path d="M120,341l-.3-.2L9.6,277.2a1,1,0,0,0-.9.2.8.8,0,0,0,.3.9l109.8,63.4v30H120Z" style="fill:#a0a0a0"/></g><g style="mix-blend-mode:color-dodge"><path d="M376.9,192.7V149.6L339,171.5v43.1l74.6,43V215.3l36.7,21.2V192L413,213.5Zm35.5,62.8-72.2-41.6V172.2l35.5-20.5v41.7l36.7,21.2Zm36.7-61.4v40.2l-34.9-20.1Z" style="fill:#848484"/></g><g style="mix-blend-mode:color-dodge"><path d="M156.7,361.5a1.1,1.1,0,0,0-1.6.4,1.2,1.2,0,0,0,.4,1.7l14.1,8.1h4.9Z" style="fill:#969696"/><path d="M229.6,277.7V236.9L266.2,258l37.3-21.5a1.3,1.3,0,0,0-1.2-2.2l-36.1,20.9-39.1-22.6v46.6l73.3,41-89.2,51.5h4.9l89.3-51.6Z" style="fill:#969696"/></g><g style="mix-blend-mode:color-dodge"><path d="M560.1,298.8l-74,42a.6.6,0,0,0-.2.8.7.7,0,0,0,.5.4h.3l74-42.1a.6.6,0,0,0-.6-1Z" style="fill:#848484"/></g><g style="mix-blend-mode:color-dodge"><path d="M487,241.1a1.2,1.2,0,0,0-1.2,1.2v54.9l-37.3-21.5v86.8a1.2,1.2,0,1,0,2.4,0V279.9l37.3,21.5V242.3A1.2,1.2,0,0,0,487,241.1Z" style="fill:#848484"/></g><g style="mix-blend-mode:color-dodge"><path d="M340.2,342.4a1.3,1.3,0,0,0,.5-1.7,1.2,1.2,0,0,0-1.7-.4l-37.3,21.5v9.9h2.4v-8.5Z" style="fill:#c6c6c6"/><path d="M83.9,362.5a1.2,1.2,0,0,0-2.4,0v9.2h2.4Z" style="fill:#c6c6c6"/><polygon points="229.6 362.5 192.8 339.9 138.3 371.7 143.2 371.7 192.8 342.8 227.1 363.9 227.1 371.7 229.6 371.7 229.6 362.5" style="fill:#c6c6c6"/></g><g style="mix-blend-mode:color-dodge"><path d="M413.6,300a1.2,1.2,0,0,0,.5-1.6,1.3,1.3,0,0,0-1.7-.5l-37.3,21.5v52.3h2.4V320.9Z" style="fill:#bcbcbc"/></g><g style="mix-blend-mode:color-dodge"><path d="M227.8,362.9a.6.6,0,0,0,.3.8l14.7,8h2.6l-16.7-9A.7.7,0,0,0,227.8,362.9Z" style="fill:#848484"/></g><g style="mix-blend-mode:screen"><path d="M377.2,318.6l-37.6-21.8L304.8,317V234.3l-36.7-21.1V129.5a1.9,1.9,0,0,0-1.9-1.9,1.8,1.8,0,0,0-1.8,1.9v85.8l36.7,21.2v86.8l38.5-22.2,35.8,20.6a1.7,1.7,0,0,0,2.5-.6A1.8,1.8,0,0,0,377.2,318.6Z" style="fill:url(#radial-gradient-6)"/></g><g style="opacity:0.5"><g style="mix-blend-mode:color-dodge"><polygon points="413.6 325.6 376.3 304.1 339.6 325.3 302.9 304.1 265.6 325.6 265.6 371.7 266.8 371.7 266.8 326.3 302.9 305.5 339.6 326.7 376.3 305.5 412.4 326.3 412.4 368.7 417.6 371.7 420.1 371.7 413.6 368 413.6 325.6" style="fill:#c9c9c9"/></g><g style="mix-blend-mode:color-dodge"><path d="M340.8,282.9l-36.7-21.2V220a1.2,1.2,0,0,0-2.4,0v43.1l36.7,21.2v87.4h2.4Z" style="fill:#595959"/><polygon points="487.6 367.6 449.7 345.7 404.7 371.7 409.6 371.7 449.7 348.6 485.2 369.1 485.2 371.7 487.6 371.7 487.6 367.6" style="fill:#595959"/></g><g style="mix-blend-mode:color-dodge"><polygon points="193.4 240.9 155.5 219 155.5 371.7 156.7 371.7 156.7 221.1 192.2 241.6 192.2 326.3 192.5 326.5 270.8 371.7 273.3 371.7 193.4 325.6 193.4 240.9" style="fill:#515151"/></g><g style="mix-blend-mode:color-dodge"><path d="M120,368l-.3-.2L9.6,304.2a.8.8,0,0,0-.9.3.7.7,0,0,0,.3.8l109.8,63.4v3H120Z" style="fill:#a0a0a0"/></g><g style="mix-blend-mode:color-dodge"><path d="M376.9,219.7V176.6L339,198.5v43.1l74.6,43.1V242.3l36.7,21.2V219L413,240.5Zm35.5,62.8-72.2-41.6V199.2l35.5-20.5v41.7l36.7,21.2Zm36.7-61.4v40.2l-34.9-20.1Z" style="fill:#848484"/></g><g style="mix-blend-mode:color-dodge"><path d="M229.6,304.7V263.9L266.2,285l37.3-21.5a1.3,1.3,0,0,0-1.2-2.2l-36.1,20.9-39.1-22.6v46.6l73.3,41-42.5,24.5h4.9l42.6-24.6Z" style="fill:#969696"/></g><g style="mix-blend-mode:color-dodge"><path d="M153.7,304.8l39.1,22.6,38-21.9-38-23.4Zm39.1,19.8-34.2-19.8L192.8,285,226,305.4Z" style="fill:#c9c9c9"/></g><g style="mix-blend-mode:color-dodge"><path d="M560.1,325.8l-74,42a.7.7,0,0,0-.2.9.5.5,0,0,0,.5.3h.3l74-42.1a.6.6,0,0,0-.6-1Z" style="fill:#848484"/></g><g style="mix-blend-mode:color-dodge"><path d="M488.2,328.4v-59a1.2,1.2,0,1,0-2.4,0v54.8l-37.3-21.5v69h2.4V306.9Z" style="fill:#848484"/></g><g style="mix-blend-mode:color-dodge"><path d="M340.7,367.7a1.4,1.4,0,0,0-1.7-.4l-7.7,4.4h4.9l4-2.3A1.3,1.3,0,0,0,340.7,367.7Z" style="fill:#c6c6c6"/><polygon points="192.8 366.9 184.6 371.7 189.5 371.7 192.8 369.8 196 371.7 200.6 371.7 192.8 366.9" style="fill:#c6c6c6"/></g><g style="mix-blend-mode:color-dodge"><path d="M413.6,327a1.2,1.2,0,0,0,.5-1.6,1.3,1.3,0,0,0-1.7-.5l-37.3,21.6v25.2h2.4V347.9Z" style="fill:#bcbcbc"/></g><g style="mix-blend-mode:screen"><path d="M377.2,345.6l-37.6-21.7L304.8,344V261.3l-36.7-21.1V156.5a1.9,1.9,0,0,0-1.9-1.9,1.8,1.8,0,0,0-1.8,1.9v85.8l36.7,21.2v86.8l38.5-22.2,35.8,20.7a1.8,1.8,0,1,0,1.8-3.2Z" style="fill:url(#radial-gradient-7)"/></g></g></g><g style="opacity:0.84"><g style="opacity:0.2"><g style="mix-blend-mode:color-dodge"><polygon points="983.9 176 1059.5 219.7 1135.1 176 1211.9 220.4 1211.9 371.8 1209.4 371.8 1209.4 221.8 1135.1 178.9 1059.5 222.6 983.9 178.9 961.1 192.1 961.1 189.2 983.9 176" style="fill:#c9c9c9"/></g><g style="mix-blend-mode:color-dodge"><path d="M1135.1.4a2.5,2.5,0,0,1,2.5,2.5v.7h-5.1V2.9A2.6,2.6,0,0,1,1135.1.4Z" style="fill:#595959"/><polygon points="1056.9 132.4 1132.5 88.7 1132.5 3.6 1137.6 3.6 1137.6 91.6 1062 135.3 1062 371.8 1056.9 371.8 1056.9 132.4" style="fill:#595959"/><polygon points="1023.2 371.8 1013.1 371.8 961.1 341.8 961.1 336 1023.2 371.8" style="fill:#595959"/></g><g style="mix-blend-mode:color-dodge"><polygon points="1438.7 3.6 1433.8 3.6 1438.7 0.7 1438.7 3.6" style="fill:#515151"/><polygon points="1360.6 220.4 1360.6 45.8 1433.8 3.6 1438.7 3.6 1438.7 371.8 1436.2 371.8 1436.2 5.1 1363.1 47.3 1363.1 221.8 1362.5 222.2 1103.3 371.8 1098.3 371.8 1360.6 220.4" style="fill:#515151"/></g><g style="mix-blend-mode:color-dodge"><path d="M1511.7,307.7l.7-.4,226.8-131a1.3,1.3,0,0,1,1.7.5,1.2,1.2,0,0,1-.4,1.7L1514.3,309.1v62.7h-2.6Z" style="fill:#a0a0a0"/></g><g style="mix-blend-mode:color-dodge"><polygon points="985.1 3.6 985.1 3.6 961.1 17.5 961.1 14.6 980.2 3.6 985.1 3.6" style="fill:#848484"/><polygon points="1058.2 45.8 1058.2 3.6 1060.7 3.6 1060.7 47.3 961.1 104.8 961.1 101.9 1058.2 45.8" style="fill:#848484"/></g><g style="mix-blend-mode:color-dodge"><path d="M1436.2,349.9a2.5,2.5,0,1,1,2.5,4.3l-30.5,17.6h-10.1Z" style="fill:#c6c6c6"/><path d="M1286.1,177.4V93.2l-75.5,43.5-76.8-44.3a2.6,2.6,0,0,1-.9-3.5,2.5,2.5,0,0,1,3.4-.9l74.3,42.9,80.5-46.5v95.9l-150.9,84.5,185.3,107h-10.1L1130,264.7Z" style="fill:#c6c6c6"/></g><g style="mix-blend-mode:color-dodge"><path d="M1442.4,177.5,1361.8,224l-78.1-45.1,78.1-48.1Zm-80.6,40.7,70.6-40.7-70.5-40.8-68.4,42.1Z" style="fill:#c9c9c9"/></g><g style="mix-blend-mode:color-dodge"><path d="M1586.1,352a2.5,2.5,0,0,1,5,0v19.8h-5Z" style="fill:#c6c6c6"/><path d="M1058.2,310.6a2.6,2.6,0,0,1-.9-3.5,2.5,2.5,0,0,1,3.4-.9l76.9,44.4v21.2h-5.1V353.5Z" style="fill:#c6c6c6"/><polygon points="1286.1 352 1361.8 305.5 1475.5 371.8 1465.5 371.8 1361.9 311.3 1291.1 354.8 1291.1 371.8 1286.1 371.8 1286.1 352" style="fill:#c6c6c6"/></g><g style="mix-blend-mode:color-dodge"><polygon points="986.4 263.3 986.4 371.8 981.4 371.8 981.4 266.2 961.1 254.5 961.1 248.7 986.4 263.3" style="fill:#bcbcbc"/></g><g style="mix-blend-mode:color-dodge"><path d="M1289.7,352.8a1.2,1.2,0,0,1-.5,1.7l-31.9,17.3H1252l36-19.5A1.3,1.3,0,0,1,1289.7,352.8Z" style="fill:#848484"/></g></g><g style="mix-blend-mode:color-dodge"><path d="M1383.7,192V153.3l17.3-10V279.2a.3.3,0,0,1-.3.3c-.1,0-.2-.1-.2-.3V144.3l-16.2,9.3v38.7h-.2l-100.5,58a.2.2,0,0,1-.4-.1.2.2,0,0,1,.1-.3Z" style="fill:#515151"/></g><g style="mix-blend-mode:color-dodge"><path d="M1350.6,250l66.9,38.6,16.2-9.4-33.5-19.3,17-9.9V211.3h.1l50.3-29.1h.4c.1.2,0,.3-.1.4l-50.1,29v38.7h-.2l-16.3,9.5,33.5,19.3-17.3,10h-.2l-67-38.7c-.1,0-.1-.2-.1-.3A.2.2,0,0,1,1350.6,250Z" style="fill:#a0a0a0"/></g><g style="mix-blend-mode:color-dodge"><path d="M1367.2,163.8l-16.7,9.7-17.1-9.9a.6.6,0,0,1-.2-.7.5.5,0,0,1,.8-.2l16.5,9.5,17.8-10.3v21.2l-33.4,18.7,49.1,28.4,16.5-9.5a.4.4,0,0,1,.7.2.5.5,0,0,1-.2.8l-17,9.8-.3-.2-51.1-29.5,34.6-19.3Z" style="fill:#969696"/></g><g style="mix-blend-mode:color-dodge"><path d="M1401.9,182.5,1384,192.8l-17.3-10,17.3-10.7Zm-17.9,9,15.6-9-15.6-9.1-15.2,9.4Z" style="fill:#c9c9c9"/></g><g style="mix-blend-mode:color-dodge"><path d="M1317,269.2l16.7,9.7,16.8-9.7h.1l50.7,29.3-17.1,9.8-16.6-9.3c-.1-.1-.2-.2-.1-.4s.3-.2.4-.1l16.3,9.2,16-9.2-49.7-28.7-16.8,9.6-16.7-9.6-16.5,9.5v57.8a.3.3,0,0,1-.3.3.3.3,0,0,1-.3-.3V279.1h.2Z" style="fill:#545454"/></g><g style="mix-blend-mode:color-dodge"><path d="M1384.5,288.6a.8.8,0,0,1-.2.8L1351,308.6v19a.5.5,0,0,1-.5.5.6.6,0,0,1-.6-.5V307.9l33.8-19.5A.5.5,0,0,1,1384.5,288.6Z" style="fill:#bababa"/></g><g style="mix-blend-mode:color-dodge"><path d="M1400.5,278.7l33.5-19.3a.4.4,0,0,1,.7.2.5.5,0,0,1-.2.8L1401,279.7h-.3c-.2,0-.3-.1-.4-.3A.5.5,0,0,1,1400.5,278.7Z" style="fill:#848484"/></g><path d="M1317.2,211l17.1,9.9v18.7l16.2-9.4,16.7,9.7V221.2l16.8-10.3,49.7,29V221.2a.6.6,0,0,1,.5-.6.6.6,0,0,1,.6.6v20.6L1384,212.2l-15.7,9.6v20l-17.8-10.3-17.3,10v-20l-16.5-9.5a.5.5,0,0,1-.2-.8A.6.6,0,0,1,1317.2,211Z" style="fill:url(#radial-gradient-8)"/><g style="mix-blend-mode:color-dodge"><path d="M1283.7,191.7l17.1,9.8v57.4l16.2-9.3,17.3,9.9v38.1l32.9-18.4V259.9l16.2-10v-19a.6.6,0,0,1,.6-.6c.3,0,.5.2.5.6v19.6l-16.2,10v19.3l-35.1,19.7V260.2l-16.2-9.4-17.3,10V202.2l-16.5-9.6a.5.5,0,0,1,.5-.9Z" style="fill:#bcbcbc"/></g><g style="mix-blend-mode:color-dodge"><polygon points="1043.6 341.1 1043.6 298.8 1080.9 277.2 1117.6 298.4 1154.2 277.2 1191.5 298.8 1191.5 371.8 1190.3 371.8 1190.3 299.5 1154.2 278.6 1117.6 299.8 1080.9 278.6 1044.8 299.5 1044.8 341.8 1008.8 362.6 1024.7 371.8 1022.2 371.8 1006.3 362.6 1043.6 341.1" style="fill:#c9c9c9"/></g><g style="mix-blend-mode:color-dodge"><polygon points="969.7 340.7 1007.5 318.9 1099.2 371.8 1094.3 371.8 1007.5 321.7 972.1 342.2 972.1 371.8 969.7 371.8 969.7 340.7" style="fill:#595959"/><path d="M1116.3,256.1l36.7-21.2V193.2a1.3,1.3,0,0,1,1.2-1.2,1.3,1.3,0,0,1,1.3,1.2v43.1l-36.7,21.2V371.8h-2.5Z" style="fill:#595959"/></g><g style="mix-blend-mode:color-dodge"><polygon points="1263.6 214.1 1301.5 192.2 1301.5 371.8 1300.3 371.8 1300.3 194.3 1264.9 214.8 1264.9 299.5 1264.5 299.6 1139.6 371.8 1137.1 371.8 1263.6 298.8 1263.6 214.1" style="fill:#515151"/></g><g style="mix-blend-mode:color-dodge"><path d="M1337,341.1l.3-.2,110-63.5a.7.7,0,0,1,.9.2.6.6,0,0,1-.3.8l-109.7,63.4v30H1337Z" style="fill:#a0a0a0"/></g><g style="mix-blend-mode:color-dodge"><path d="M1080.3,192.9V149.8l37.9,21.9v43.1l-74.6,43V215.5l-36.7,21.1V192.2l37.3,21.5Zm-35.5,62.8,72.1-41.6V172.4L1081.5,152v41.6l-36.7,21.2Zm-36.6-61.4v40.2l34.8-20.1Z" style="fill:#848484"/></g><g style="mix-blend-mode:color-dodge"><path d="M1227.5,277.9V237l-36.6,21.2-37.3-21.6a1.1,1.1,0,0,1-.4-1.6,1.2,1.2,0,0,1,1.6-.5l36.1,20.9,39-22.6v46.5l-73.2,41,89.2,51.5H1241l-89.2-51.5Z" style="fill:#969696"/><path d="M1300.3,361.6a1.2,1.2,0,0,1,1.7.4,1.3,1.3,0,0,1-.5,1.7l-14,8.1h-4.9Z" style="fill:#969696"/></g><g style="mix-blend-mode:color-dodge"><path d="M971.2,340.9a.7.7,0,0,1,.2.9.9.9,0,0,1-.5.3h-.3l-9.5-5.4v-1.4Z" style="fill:#848484"/></g><g style="mix-blend-mode:color-dodge"><path d="M970.3,241.3a1.2,1.2,0,0,1,1.2,1.2v54.8l37.3-21.5v86.8a1.2,1.2,0,0,1-1.3,1.2,1.2,1.2,0,0,1-1.2-1.2V280.1l-37.2,21.5V242.5A1.2,1.2,0,0,1,970.3,241.3Z" style="fill:#848484"/></g><g style="mix-blend-mode:screen"><path d="M1373,362.6a1.2,1.2,0,0,1,1.3-1.2,1.2,1.2,0,0,1,1.2,1.2v9.2H1373Z" style="fill:url(#radial-gradient-9)"/><path d="M1116.9,342.5a1.2,1.2,0,1,1,1.3-2.1l37.3,21.5v9.9H1153v-8.5Z" style="fill:url(#radial-gradient-10)"/><polygon points="1227.5 362.6 1264.2 340 1318.7 371.8 1313.8 371.8 1264.3 342.9 1230 364 1230 371.8 1227.5 371.8 1227.5 362.6" style="fill:url(#radial-gradient-11)"/></g><g style="mix-blend-mode:color-dodge"><path d="M1043.6,300.2a1.2,1.2,0,0,1-.4-1.7,1.2,1.2,0,0,1,1.6-.5l37.3,21.6v52.2h-2.4V321Z" style="fill:#bcbcbc"/></g><g style="mix-blend-mode:color-dodge"><path d="M1229.3,363a.6.6,0,0,1-.3.8l-14.7,8h-2.6l16.7-9A.7.7,0,0,1,1229.3,363Z" style="fill:#848484"/></g><g style="mix-blend-mode:color-dodge"><path d="M1080,318.7l37.6-21.7,34.8,20.1V234.5l36.7-21.1V129.7a1.8,1.8,0,1,1,3.6,0v85.8l-36.6,21.1v86.9l-38.5-22.3-35.8,20.7a1.8,1.8,0,0,1-1.8-3.2Z" style="fill:#c9c9c9"/></g><g style="opacity:0.5"><polygon points="1043.6 325.7 1080.9 304.2 1117.6 325.4 1154.2 304.2 1191.5 325.7 1191.5 371.8 1190.3 371.8 1190.3 326.4 1154.2 305.6 1117.6 326.8 1080.9 305.6 1044.8 326.4 1044.8 368.8 1039.6 371.8 1037.2 371.8 1043.6 368.1 1043.6 325.7" style="fill:url(#radial-gradient-12)"/><g style="mix-blend-mode:color-dodge"><path d="M1116.3,283l36.7-21.1V220.2a1.3,1.3,0,0,1,1.2-1.2,1.3,1.3,0,0,1,1.3,1.2v43.1l-36.7,21.2v87.3h-2.5Z" style="fill:#595959"/><polygon points="969.7 367.7 1007.5 345.9 1052.5 371.8 1047.6 371.8 1007.5 348.7 972.1 369.1 972.1 371.8 969.7 371.8 969.7 367.7" style="fill:#595959"/></g><g style="mix-blend-mode:color-dodge"><polygon points="1263.6 241.1 1301.5 219.2 1301.5 371.8 1300.3 371.8 1300.3 221.3 1264.9 241.8 1264.9 326.4 1264.5 326.6 1186.3 371.8 1183.8 371.8 1263.6 325.7 1263.6 241.1" style="fill:#515151"/></g><g style="mix-blend-mode:color-dodge"><path d="M1337,368.1l.3-.2,110-63.5a.7.7,0,0,1,.9.2.6.6,0,0,1-.3.8l-109.7,63.4v3H1337Z" style="fill:#a0a0a0"/></g><g style="mix-blend-mode:color-dodge"><path d="M1080.3,219.9V176.8l37.9,21.9v43.1l-74.6,43V242.5l-36.7,21.1V219.2l37.3,21.5Zm-35.5,62.8,72.1-41.6V199.4l-35.4-20.5v41.7l-36.7,21.2Zm-36.6-61.4v40.2l34.8-20.1Z" style="fill:#848484"/></g><g style="mix-blend-mode:color-dodge"><path d="M1227.5,304.9V264l-36.6,21.2-37.3-21.6a1.1,1.1,0,0,1-.4-1.6,1.2,1.2,0,0,1,1.6-.5l36.1,20.8,39-22.5v46.5l-73.2,41,42.5,24.5h-4.9l-42.5-24.6Z" style="fill:#969696"/></g><path d="M1303.4,304.9l-39.2,22.6-37.9-21.9,37.9-23.3Zm-39.2,19.8,34.3-19.8-34.2-19.8-33.2,20.5Z" style="fill:url(#radial-gradient-13)"/><g style="mix-blend-mode:color-dodge"><path d="M971.2,367.9a.5.5,0,0,1,.2.8.5.5,0,0,1-.5.3h-.3l-9.5-5.4v-1.4Z" style="fill:#848484"/></g><g style="mix-blend-mode:color-dodge"><path d="M969.1,328.5v-59a1.2,1.2,0,0,1,2.4,0v54.8l37.3-21.5v69h-2.5V307Z" style="fill:#848484"/></g><g style="mix-blend-mode:color-dodge"><path d="M1116.5,367.8a1.2,1.2,0,0,1,1.7-.4l7.6,4.4h-4.9l-4-2.3A1.4,1.4,0,0,1,1116.5,367.8Z" style="fill:#c6c6c6"/><polygon points="1264.2 367 1272.4 371.8 1267.6 371.8 1264.3 369.9 1261.1 371.8 1256.4 371.8 1264.2 367" style="fill:#c6c6c6"/></g><g style="mix-blend-mode:color-dodge"><path d="M1043.6,327.1a1.1,1.1,0,0,1-.4-1.6,1.2,1.2,0,0,1,1.6-.5l37.3,21.6v25.2h-2.4V348Z" style="fill:#bcbcbc"/></g><g style="mix-blend-mode:color-dodge"><path d="M1080,345.7l37.6-21.7,34.8,20.1V261.5l36.7-21.2V156.7a1.8,1.8,0,1,1,3.6,0v85.8l-36.6,21.1v86.8l-38.5-22.2-35.8,20.7a1.8,1.8,0,0,1-1.8-3.2Z" style="fill:#c9c9c9"/></g></g><g style="mix-blend-mode:color-dodge"><path d="M1848.2,192V153.3l17.4-10V279.2a.3.3,0,0,1-.3.3.3.3,0,0,1-.3-.3V144.3l-16.2,9.3v38.7h-.1l-100.6,58c-.1.1-.3.1-.3-.1s-.1-.3.1-.3Z" style="fill:#515151"/></g><g style="mix-blend-mode:color-dodge"><path d="M1882.3,250.4h-.1l-16.4,9.5,33.5,19.3-17.3,10h-.1l-67-38.7c-.2,0-.2-.2-.1-.3s.2-.2.4-.1l66.8,38.6,16.2-9.4-33.5-19.3,17-9.9V211.3h.2l39.5-22.9v.7l-39.1,22.6Z" style="fill:#a0a0a0"/></g><g style="mix-blend-mode:color-dodge"><path d="M1831.7,163.8l-16.7,9.7-17-9.9a.5.5,0,0,1,.5-.9l16.5,9.5,17.9-10.3v21.2l-33.5,18.7,49.1,28.4,16.5-9.5a.5.5,0,0,1,.8.2.8.8,0,0,1-.2.8l-17.1,9.8-.3-.2-51.1-29.5,34.6-19.3Z" style="fill:#969696"/></g><g style="mix-blend-mode:color-dodge"><path d="M1866.4,182.5l-17.9,10.3-17.3-10,17.3-10.7Zm-17.9,9,15.7-9-15.7-9.1-15.1,9.4Z" style="fill:#c9c9c9"/></g><g style="mix-blend-mode:color-dodge"><path d="M1781.5,269.2l16.8,9.7,16.7-9.7h.2l50.6,29.3-17,9.8-16.6-9.3c-.2-.1-.2-.2-.1-.4a.2.2,0,0,1,.3-.1l16.4,9.2,15.9-9.2L1815,269.9l-16.7,9.6-16.8-9.6-16.5,9.5v57.8c0,.2-.1.3-.2.3a.3.3,0,0,1-.3-.3V279.1h.1Z" style="fill:#545454"/></g><g style="mix-blend-mode:color-dodge"><path d="M1849,288.6a.5.5,0,0,1-.2.8l-33.2,19.2v19a.6.6,0,0,1-.6.5.5.5,0,0,1-.5-.5V307.9l33.7-19.5A.5.5,0,0,1,1849,288.6Z" style="fill:#bababa"/></g><g style="mix-blend-mode:color-dodge"><path d="M1865,278.7l33.5-19.3a.5.5,0,0,1,.8.2.8.8,0,0,1-.2.8l-33.5,19.3h-.3a.5.5,0,0,1-.5-.3A.5.5,0,0,1,1865,278.7Z" style="fill:#848484"/></g><g style="mix-blend-mode:color-dodge"><path d="M1781.8,211l17,9.9v18.7l16.2-9.4,16.7,9.7V221.2l16.8-10.3,49.7,29V221.2a.6.6,0,0,1,.6-.6.6.6,0,0,1,.5.6v20.6l-50.8-29.6-15.6,9.6v20L1815,231.5l-17.3,10v-20l-16.5-9.5a.6.6,0,0,1,.6-1Z" style="fill:#d3d3d3"/></g><path d="M1748.3,191.7l17,9.8v57.4l16.2-9.3,17.3,9.9v38.1l32.9-18.4V259.9l16.3-10v-19c0-.4.2-.6.5-.6a.6.6,0,0,1,.6.6v19.6l-16.2,10v19.3l-35.2,19.7V260.2l-16.2-9.4-17.3,10V202.2l-16.5-9.6a.6.6,0,0,1-.2-.7A.5.5,0,0,1,1748.3,191.7Z" style="fill:url(#radial-gradient-14)"/><g style="mix-blend-mode:color-dodge"><polygon points="1508.1 341.1 1508.1 298.8 1545.4 277.2 1582.1 298.4 1618.8 277.2 1656.1 298.8 1656.1 371.8 1654.8 371.8 1654.8 299.5 1618.8 278.6 1582.1 299.8 1545.4 278.6 1509.4 299.5 1509.4 341.8 1473.3 362.6 1489.2 371.8 1486.8 371.8 1470.9 362.6 1508.1 341.1" style="fill:#c9c9c9"/></g><g style="mix-blend-mode:color-dodge"><polygon points="1434.2 340.7 1472.1 318.9 1563.8 371.8 1558.9 371.8 1472.1 321.7 1436.6 342.2 1436.6 371.8 1434.2 371.8 1434.2 340.7" style="fill:#595959"/><path d="M1580.9,256.1l36.6-21.2V193.2a1.3,1.3,0,0,1,1.3-1.2,1.3,1.3,0,0,1,1.2,1.2v43.1l-36.7,21.2V371.8h-2.4Z" style="fill:#595959"/></g><g style="mix-blend-mode:color-dodge"><polygon points="1728.2 214.1 1766.1 192.2 1766.1 371.8 1764.8 371.8 1764.8 194.3 1729.4 214.8 1729.4 299.5 1729.1 299.6 1604.1 371.8 1601.7 371.8 1728.2 298.8 1728.2 214.1" style="fill:#515151"/></g><g style="mix-blend-mode:color-dodge"><path d="M1801.5,341.1l.3-.2,110.1-63.5a.5.5,0,0,1,.8.2.5.5,0,0,1-.2.8l-109.8,63.4v30h-1.2Z" style="fill:#a0a0a0"/></g><g style="mix-blend-mode:color-dodge"><path d="M1544.8,192.9V149.8l37.9,21.9v43.1l-74.6,43V215.5l-36.6,21.1V192.2l37.3,21.5Zm-35.4,62.8,72.1-41.6V172.4L1546,152v41.6l-36.6,21.2Zm-36.7-61.4v40.2l34.8-20.1Z" style="fill:#848484"/></g><g style="mix-blend-mode:color-dodge"><path d="M1764.8,361.6a1.2,1.2,0,0,1,1.7.4,1.4,1.4,0,0,1-.4,1.7l-14.1,8.1h-4.9Z" style="fill:#969696"/><path d="M1692,277.9V237l-36.6,21.2-37.2-21.6a1.2,1.2,0,0,1-.5-1.6,1.3,1.3,0,0,1,1.7-.5l36,20.9,39.1-22.6v46.5l-73.3,41,89.3,51.5h-4.9l-89.3-51.5Z" style="fill:#969696"/></g><g style="mix-blend-mode:color-dodge"><path d="M1361.8,298.9l73.9,42a.7.7,0,0,1,.2.9.9.9,0,0,1-.5.3h-.3l-73.9-42a.7.7,0,0,1-.2-.9A.5.5,0,0,1,1361.8,298.9Z" style="fill:#848484"/></g><g style="mix-blend-mode:color-dodge"><path d="M1434.8,241.3a1.3,1.3,0,0,1,1.3,1.2v54.8l37.2-21.5v86.8a1.2,1.2,0,1,1-2.4,0V280.1l-37.3,21.5V242.5A1.3,1.3,0,0,1,1434.8,241.3Z" style="fill:#848484"/></g><g style="mix-blend-mode:color-dodge"><path d="M1581.5,342.5a1.3,1.3,0,0,1-.5-1.7,1.4,1.4,0,0,1,1.7-.4l37.3,21.5v9.9h-2.5v-8.5Z" style="fill:#c6c6c6"/><path d="M1837.6,362.6a1.2,1.2,0,0,1,2.4,0v9.2h-2.4Z" style="fill:#c6c6c6"/><polygon points="1692 362.6 1728.8 340 1783.2 371.8 1778.4 371.8 1728.8 342.9 1694.5 364 1694.5 371.8 1692 371.8 1692 362.6" style="fill:#c6c6c6"/></g><g style="mix-blend-mode:color-dodge"><path d="M1508.1,300.2a1.4,1.4,0,0,1-.4-1.7,1.3,1.3,0,0,1,1.7-.5l37.3,21.6v52.2h-2.5V321Z" style="fill:#bcbcbc"/></g><g style="mix-blend-mode:color-dodge"><path d="M1693.8,363a.5.5,0,0,1-.2.8l-14.8,8h-2.5l16.7-9A.5.5,0,0,1,1693.8,363Z" style="fill:#848484"/></g><g style="mix-blend-mode:screen"><path d="M1544.5,318.7l37.6-21.7,34.8,20.1V234.5l36.7-21.1V129.7a1.8,1.8,0,0,1,1.8-1.8,1.8,1.8,0,0,1,1.9,1.8v85.8l-36.7,21.1v86.9l-38.5-22.3-35.8,20.7a1.8,1.8,0,0,1-2.5-.7A1.8,1.8,0,0,1,1544.5,318.7Z" style="fill:url(#radial-gradient-15)"/></g><g style="opacity:0.5"><g style="mix-blend-mode:color-dodge"><polygon points="1508.1 325.7 1545.4 304.2 1582.1 325.4 1618.8 304.2 1656.1 325.7 1656.1 371.8 1654.8 371.8 1654.8 326.4 1618.8 305.6 1582.1 326.8 1545.4 305.6 1509.4 326.4 1509.4 368.8 1504.2 371.8 1501.7 371.8 1508.1 368.1 1508.1 325.7" style="fill:#c9c9c9"/></g><g style="mix-blend-mode:color-dodge"><path d="M1580.9,283l36.6-21.1V220.2a1.3,1.3,0,0,1,1.3-1.2,1.3,1.3,0,0,1,1.2,1.2v43.1l-36.7,21.2v87.3h-2.4Z" style="fill:#595959"/><polygon points="1434.2 367.7 1472.1 345.9 1517 371.8 1512.1 371.8 1472.1 348.7 1436.6 369.1 1436.6 371.8 1434.2 371.8 1434.2 367.7" style="fill:#595959"/></g><g style="mix-blend-mode:color-dodge"><polygon points="1728.2 241.1 1766.1 219.2 1766.1 371.8 1764.8 371.8 1764.8 221.3 1729.4 241.8 1729.4 326.4 1729.1 326.6 1650.8 371.8 1648.4 371.8 1728.2 325.7 1728.2 241.1" style="fill:#515151"/></g><g style="mix-blend-mode:color-dodge"><path d="M1801.5,368.1l.3-.2,110.1-63.5a.5.5,0,0,1,.8.2.5.5,0,0,1-.2.8l-109.8,63.4v3h-1.2Z" style="fill:#a0a0a0"/></g><g style="mix-blend-mode:color-dodge"><path d="M1544.8,219.9V176.8l37.9,21.9v43.1l-74.6,43V242.5l-36.6,21.1V219.2l37.3,21.5Zm-35.4,62.8,72.1-41.6V199.4L1546,178.9v41.7l-36.6,21.2Zm-36.7-61.4v40.2l34.8-20.1Z" style="fill:#848484"/></g><g style="mix-blend-mode:color-dodge"><path d="M1692,304.9V264l-36.6,21.2-37.2-21.6a1.2,1.2,0,0,1-.5-1.6,1.3,1.3,0,0,1,1.7-.5l36,20.8,39.1-22.5v46.5l-73.3,41,42.5,24.5h-4.9l-42.5-24.6Z" style="fill:#969696"/></g><g style="mix-blend-mode:color-dodge"><path d="M1767.9,304.9l-39.1,22.6-37.9-21.9,37.9-23.3Zm-39.1,19.8,34.2-19.8-34.2-19.8-33.1,20.5Z" style="fill:#c9c9c9"/></g><g style="mix-blend-mode:color-dodge"><path d="M1361.8,325.9l73.9,42a.5.5,0,0,1,.2.8.5.5,0,0,1-.5.3h-.3l-73.9-42a.7.7,0,0,1-.2-.9A.5.5,0,0,1,1361.8,325.9Z" style="fill:#848484"/></g><g style="mix-blend-mode:color-dodge"><path d="M1433.6,328.5v-59a1.2,1.2,0,0,1,1.2-1.2,1.2,1.2,0,0,1,1.3,1.2v54.8l37.2-21.5v69h-2.4V307Z" style="fill:#848484"/></g><g style="mix-blend-mode:color-dodge"><path d="M1581,367.8a1.2,1.2,0,0,1,1.7-.4l7.7,4.4h-4.9l-4-2.3A1.3,1.3,0,0,1,1581,367.8Z" style="fill:#c6c6c6"/><polygon points="1728.8 367 1737 371.8 1732.1 371.8 1728.8 369.9 1725.6 371.8 1721 371.8 1728.8 367" style="fill:#c6c6c6"/></g><g style="mix-blend-mode:color-dodge"><path d="M1508.1,327.1a1.2,1.2,0,0,1-.4-1.6,1.3,1.3,0,0,1,1.7-.5l37.3,21.6v25.2h-2.5V348Z" style="fill:#bcbcbc"/></g><g style="mix-blend-mode:screen"><path d="M1544.5,345.7l37.6-21.7,34.8,20.1V261.5l36.7-21.2V156.7a1.8,1.8,0,0,1,1.8-1.8,1.8,1.8,0,0,1,1.9,1.8v85.8l-36.7,21.1v86.8l-38.5-22.2-35.8,20.7a1.8,1.8,0,0,1-2.5-.7A1.8,1.8,0,0,1,1544.5,345.7Z" style="fill:url(#radial-gradient-16)"/></g></g></g><g style="mix-blend-mode:hard-light"><rect x="1270.9" y="303.6" width="1.3" height="6.45" style="fill:url(#Blue_Sky)"/><rect x="1270.9" y="303.6" width="1.3" height="6.45" transform="translate(1578.3 -964.7) rotate(90)" style="fill:url(#Blue_Sky-2)"/><rect x="1283" y="303.6" width="1.3" height="6.45" style="fill:url(#Blue_Sky-3)"/><rect x="1283" y="303.6" width="1.3" height="6.45" transform="translate(1590.5 -976.8) rotate(90)" style="fill:url(#Blue_Sky-4)"/><rect x="1259" y="315.1" width="1.3" height="6.45" style="fill:url(#Blue_Sky-5)"/><rect x="1259" y="315.1" width="1.3" height="6.45" transform="translate(1578 -941.2) rotate(90)" style="fill:url(#Blue_Sky-6)"/><rect x="1271.1" y="315.1" width="1.3" height="6.45" style="fill:url(#Blue_Sky-7)"/><rect x="1271.1" y="315.1" width="1.3" height="6.45" transform="translate(1590.1 -953.3) rotate(90)" style="fill:url(#Blue_Sky-8)"/><rect x="1235.3" y="303.6" width="1.3" height="6.45" style="fill:url(#Blue_Sky-9)"/><rect x="1235.3" y="303.6" width="1.3" height="6.45" transform="translate(1542.8 -929.1) rotate(90)" style="fill:url(#Blue_Sky-10)"/><rect x="1247.5" y="303.6" width="1.3" height="6.45" style="fill:url(#Blue_Sky-11)"/><rect x="1247.5" y="303.6" width="1.3" height="6.45" transform="translate(1554.9 -941.3) rotate(90)" style="fill:url(#Blue_Sky-12)"/><rect x="1218.3" y="315.1" width="1.3" height="6.45" style="fill:url(#Blue_Sky-13)"/><rect x="1218.3" y="315.1" width="1.3" height="6.45" transform="translate(1537.3 -900.6) rotate(90)" style="fill:url(#Blue_Sky-14)"/><rect x="1230.4" y="315.1" width="1.3" height="6.45" style="fill:url(#Blue_Sky-15)"/><rect x="1230.4" y="315.1" width="1.3" height="6.45" transform="translate(1549.4 -912.7) rotate(90)" style="fill:url(#Blue_Sky-16)"/></g><g id="Cube-two" style="opacity:0.77"><polygon points="143.4 307.1 158.9 298.1 158.9 289.2 143.4 298.1 143.4 307.1" style="fill:url(#radial-gradient-17)"/><polygon points="128 298.1 143.4 307.1 143.4 298.1 128 289.2 128 298.1" style="fill:url(#radial-gradient-18)"/><polygon points="128 289.2 143.4 298.1 158.9 289.2 143.4 280.3 128 289.2" style="fill:url(#radial-gradient-19)"/><polygon points="158.6 289.2 158.8 289.3 158.9 289.2 158.8 289.1 158.6 289.2" style="fill:url(#radial-gradient-20)"/><path d="M143.5,280.2h-.1l-15.5,8.9h-.1a.1.1,0,0,0,.1.1l15.5,8.9c0,.1,0,.1.1,0l15.4-8.9h-.3L143.4,298l-15.2-8.8,15.2-8.8,15.2,8.8h.3c.1,0,.1,0,.1-.1h-.1Z" style="fill:url(#radial-gradient-21)"/><path d="M158.9,298l-15.4-8.9h-.1L127.9,298h0l15.5,9h.1l15.4-9h-.3l-15.2,8.8-15.2-8.8,15.2-8.7,15.2,8.7h.4A.1.1,0,0,0,158.9,298Z" style="fill:url(#radial-gradient-22)"/><polygon points="158.6 298.1 158.8 298.2 158.9 298.1 158.8 298 158.6 298.1" style="fill:url(#radial-gradient-23)"/><path d="M158.9,289.1h-.2v8.9l.2.2v-9.1Z" style="fill:url(#radial-gradient-24)"/><path d="M143.4,298a.1.1,0,0,0-.1.1v9h.2v-9A.1.1,0,0,0,143.4,298Z" style="fill:url(#radial-gradient-25)"/><path d="M143.4,280.2c-.1,0-.1,0-.1.1v8.9c0,.1,0,.1.1.1s.1,0,.1-.1v-8.9C143.5,280.2,143.5,280.2,143.4,280.2Z" style="fill:url(#radial-gradient-26)"/><rect x="127.8" y="289.2" width="0.3" height="8.92" style="fill:url(#radial-gradient-27)"/><g style="mix-blend-mode:color-dodge"><polygon points="143.4 307.1 158.9 298.1 158.9 289.2 143.4 298.1 143.4 307.1" style="fill:#e2e0e0"/><polygon points="128 298.1 143.4 307.1 143.4 298.1 128 289.2 128 298.1" style="fill:#a8a7a7"/><polygon points="128 289.2 143.4 298.1 158.9 289.2 143.4 280.3 128 289.2" style="fill:#d1d1d1"/><path d="M158.9,289.1l-15.4-8.9h-.1l-15.5,8.9h-.1v8.9h.1l15.5,9h.1l15.4-9h.1v-8.9Zm-15.6,17.7-15.1-8.7h-.1v-8.7l7.3,4.3h.3l7.6,4.4Zm15.4-8.7h-.1l-15.1,8.7v-8.6l7.6-4.4h.3l7.3-4.3Z" style="fill:#d8d8d8"/></g><polygon points="143.4 291.7 158.9 282.8 158.9 273.8 143.4 282.8 143.4 291.7" style="fill:url(#radial-gradient-28)"/><polygon points="128 282.8 143.4 291.7 143.4 282.8 128 273.8 128 282.8" style="fill:url(#radial-gradient-29)"/><polygon points="128 273.8 143.4 282.8 158.9 273.8 143.4 264.9 128 273.8" style="fill:url(#radial-gradient-30)"/><path d="M158.9,273.7l-15.4-8.9h-.1l-15.5,8.9h0l15.5,9h.1l15.4-9h-.3l-15.2,8.8-15.2-8.8,15.2-8.7,15.2,8.7h.4A.1.1,0,0,0,158.9,273.7Z" style="fill:url(#radial-gradient-31)"/><polygon points="158.6 273.8 158.8 273.9 158.9 273.8 158.8 273.7 158.6 273.8" style="fill:url(#radial-gradient-32)"/><polygon points="158.6 282.8 158.8 282.9 158.9 282.8 158.8 282.6 158.6 282.8" style="fill:url(#radial-gradient-33)"/><path d="M143.5,273.7h-.1l-15.5,8.9c0,.1-.1.1-.1.2h.1l15.5,8.9h.1l15.4-8.9h-.3l-15.2,8.7-15.2-8.7,15.2-8.8,15.2,8.8.2-.2v.2h.1c0-.1,0-.1-.1-.2Z" style="fill:url(#radial-gradient-34)"/><path d="M158.9,273.7h-.2v9h.3v-9Z" style="fill:url(#radial-gradient-35)"/><path d="M143.4,282.6c-.1,0-.1.1-.1.2v8.9c0,.1,0,.1.1.1s.1,0,.1-.1v-8.9C143.5,282.7,143.5,282.6,143.4,282.6Z" style="fill:url(#radial-gradient-36)"/><path d="M143.4,264.8h-.1v8.9c0,.1,0,.2.1.2s.1-.1.1-.2v-8.9Z" style="fill:url(#radial-gradient-37)"/><rect x="127.8" y="273.8" width="0.3" height="8.92" style="fill:url(#radial-gradient-38)"/><polygon points="143.4 291.7 158.9 282.8 158.9 273.8 143.4 282.8 143.4 291.7" style="fill:url(#radial-gradient-39)"/><polygon points="128 282.8 143.4 291.7 143.4 282.8 128 273.8 128 282.8" style="fill:url(#radial-gradient-40)"/><polygon points="128 273.8 143.4 282.8 158.9 273.8 143.4 264.9 128 273.8" style="fill:url(#radial-gradient-41)"/><path d="M158.9,273.7l-15.4-8.9h-.1l-15.5,8.9h-.1v9h.1l15.5,8.9h.1l15.4-8.9h.1v-9Zm-15.6,17.8-15.1-8.7h-.1v-8.6l7.3,4.2h.3l7.6,4.4Zm15.4-8.8h-.1l-15.1,8.7v-8.7l7.6-4.4h.3l7.3-4.2Z" style="fill:url(#radial-gradient-42)"/></g></g></g></g></g></svg>