<svg id="Layer_1" data-name="Layer 1" xmlns="http://www.w3.org/2000/svg" viewBox="0 0 85 85"><defs><style>.cls-1{fill:#171f24;}.cls-2{fill:#fff;}</style></defs><g id="Circle_Black" data-name="Circle Black"><g id="Twitter"><circle id="back" class="cls-1" cx="42.5" cy="42.5" r="42.5"/><path id="Twitter-2" class="cls-2" d="M66.3,27.74a19.48,19.48,0,0,1-5.61,1.54A9.77,9.77,0,0,0,65,23.87a19.48,19.48,0,0,1-6.2,2.37,9.77,9.77,0,0,0-16.89,6.68,10.44,10.44,0,0,0,.25,2.23A27.81,27.81,0,0,1,22,25a9.78,9.78,0,0,0,3,13,9.84,9.84,0,0,1-4.43-1.22v.13a9.76,9.76,0,0,0,7.84,9.57,10,10,0,0,1-4.41.17,9.76,9.76,0,0,0,9.12,6.78A19.58,19.58,0,0,1,21,57.59a20.1,20.1,0,0,1-2.33-.14,27.51,27.51,0,0,0,15,4.39c18,0,27.79-14.88,27.79-27.78V32.79A19.7,19.7,0,0,0,66.3,27.74Z"/></g></g></svg>