<svg xmlns="http://www.w3.org/2000/svg" width="82" height="82" viewBox="0 0 82 82"><g transform="translate(0 0.221)"><g transform="translate(0 -0.221)" fill="none" stroke="#424242" stroke-width="2"><circle cx="41" cy="41" r="41" stroke="none"/><circle cx="41" cy="41" r="40" fill="none"/></g><path d="M2.952-22.212A.984.984,0,0,0,3.96-23.22a.984.984,0,0,0-1.008-1.008A.984.984,0,0,0,1.944-23.22.984.984,0,0,0,2.952-22.212ZM-2.2,7.848h.18c3.888,0,5.436-1.872,5.436-6.012v-19.62H2.484V1.836c0,3.744-1.188,5.184-4.5,5.184H-2.2ZM14.292.468A1.045,1.045,0,0,0,15.336-.576,1.045,1.045,0,0,0,14.292-1.62,1.045,1.045,0,0,0,13.248-.576,1.045,1.045,0,0,0,14.292.468Zm16.524,0c4.32,0,7.092-2.3,7.092-5.508,0-3.6-3.456-4-6.732-4.356-3.1-.36-6.012-.612-6.012-3.636,0-2.628,2.16-4.356,5.616-4.356s5.58,1.692,5.652,4.248h.936c-.072-2.916-2.556-5.112-6.588-5.112-3.888,0-6.588,2.088-6.588,5.328,0,3.636,3.456,4.032,6.732,4.392,3.1.36,6.012.648,6.012,3.6,0,2.628-2.3,4.572-6.084,4.572-3.708,0-6.084-1.872-6.192-4.464h-.936C23.832-1.8,26.5.468,30.816.468Z" transform="translate(24 47.779)" fill="#84c9fb"/></g></svg>