<svg id="Layer_1" data-name="Layer 1" xmlns="http://www.w3.org/2000/svg" viewBox="0 0 85 85"><defs><style>.cls-1{fill:#171f24;}.cls-2,.cls-3{fill:#fff;}.cls-2{fill-rule:evenodd;}</style></defs><g id="Circle_Black" data-name="Circle Black"><g id="Github"><circle id="back" class="cls-1" cx="42.5" cy="42.5" r="42.5"/><g id="Github-2"><path class="cls-2" d="M42.5,19.29A23.8,23.8,0,0,0,35,65.67c1.19.22,1.62-.52,1.62-1.14V60.1c-6.62,1.43-8-2.81-8-2.81C27.54,54.54,26,53.8,26,53.8c-2.16-1.47.16-1.44.16-1.44a5,5,0,0,1,3.65,2.45c2.12,3.64,5.57,2.59,6.93,2a5,5,0,0,1,1.51-3.18C32.87,53,27.31,51,27.31,41.84a9.2,9.2,0,0,1,2.46-6.38,8.52,8.52,0,0,1,.23-6.3s2-.64,6.54,2.44a22.53,22.53,0,0,1,11.92,0C53,28.52,55,29.16,55,29.16a8.52,8.52,0,0,1,.23,6.3,9.15,9.15,0,0,1,2.45,6.38C57.68,51,52.12,53,46.82,53.59A5.69,5.69,0,0,1,48.43,58v6.53c0,.63.43,1.37,1.64,1.14A23.8,23.8,0,0,0,42.5,19.29Z"/><path class="cls-3" d="M27.71,53.46c-.05.12-.23.15-.4.07s-.27-.24-.22-.36.24-.15.41-.07S27.77,53.34,27.71,53.46Z"/><path class="cls-3" d="M28.68,54.53c-.11.11-.34.06-.49-.11a.36.36,0,0,1-.07-.49c.12-.11.33-.06.49.11S28.8,54.43,28.68,54.53Z"/><path class="cls-3" d="M29.62,55.91c-.15.1-.39,0-.53-.21s-.15-.47,0-.57.38,0,.53.2A.43.43,0,0,1,29.62,55.91Z"/><path class="cls-3" d="M30.9,57.23c-.13.14-.41.1-.61-.09s-.27-.47-.13-.61a.45.45,0,0,1,.61.09C31,56.81,31,57.09,30.9,57.23Z"/><path class="cls-3" d="M32.68,58c-.06.18-.33.27-.6.19s-.44-.3-.39-.49.33-.27.6-.19S32.73,57.81,32.68,58Z"/><path class="cls-3" d="M34.62,58.14c0,.2-.22.36-.5.36s-.52-.15-.52-.34.22-.36.51-.37S34.62,58,34.62,58.14Z"/><path class="cls-3" d="M36.44,57.83a.5.5,0,0,1-.45.44c-.28,0-.53-.06-.56-.25s.16-.4.44-.45S36.4,57.64,36.44,57.83Z"/></g></g></g></svg>